<svg xmlns="http://www.w3.org/2000/svg" xmlns:xlink="http://www.w3.org/1999/xlink" viewBox="0 0 167.26 135.29"><defs><style>.m{fill:url(#j);}.n{fill:#335eaa;}.o,.p{fill:#fff;}.q{fill:url(#h);}.r{fill:url(#i);}.s{clip-path:url(#g);}.t,.u{fill:#000502;}.v{isolation:isolate;}.w{fill:#001c5b;}.x{clip-path:url(#d);}.y{fill:#c3f;}.z{fill:#18b0b7;}.aa{clip-path:url(#e);}.ab{clip-path:url(#f);}.ac{fill:#d4d9d7;}.p{stroke:#fff;stroke-linecap:round;stroke-width:.21px;}.p,.u{stroke-miterlimit:10;}.ad{clip-path:url(#l);}.ae{fill:none;}.af{fill:#37d3db;}.ag{fill:#1cbec6;}.ah{fill:#647794;mix-blend-mode:multiply;opacity:.5;}.u{stroke:#000;stroke-width:.21px;}.ai{fill:url(#k);}.aj{fill:#00d2e7;}</style><clipPath id="d"><polygon class="ae" points="69.03 36.64 69.05 25.24 79.61 23.76 79.58 35.16 69.03 36.64"></polygon></clipPath><clipPath id="e"><polygon class="ae" points="40.59 23.34 40.61 11.95 51.17 10.47 51.14 21.85 40.59 23.34"></polygon></clipPath><clipPath id="f"><polygon class="ae" points="90.01 33.8 90.03 22.48 100.53 21 100.5 32.33 90.01 33.8"></polygon></clipPath><clipPath id="g"><polygon class="ae" points="55.11 32.88 55.13 21.56 65.62 20.08 65.6 31.41 55.11 32.88"></polygon></clipPath><linearGradient id="h" x1="-62.35" y1="94.88" x2="-58.93" y2="93.03" gradientTransform="translate(-16.28) rotate(-180) scale(1 -1)" gradientUnits="userSpaceOnUse"><stop offset="0" stop-color="#ffdab8"></stop><stop offset="1" stop-color="#ffdab8"></stop></linearGradient><linearGradient id="i" x1="-37.49" y1="76.58" x2="-33.25" y2="76.58" xlink:href="#h"></linearGradient><linearGradient id="j" x1="-41.31" y1="81.05" x2="-41.41" y2="76.29" xlink:href="#h"></linearGradient><linearGradient id="k" x1="-107.7" y1="79.52" x2="-109.82" y2="85.21" xlink:href="#h"></linearGradient><clipPath id="l"><path class="ae" d="m71.31.46c5.34,0,9.44,4.27,9.44,9.76s-4.28,8.72-9.22,9.17c-5.32.48-9.91-4.43-9.91-9.92,0-5.49,4.36-9.01,9.7-9.01Z"></path></clipPath></defs><g class="v"><g id="b"><g id="c"><path class="o" d="m76.28,47.66h78.01c4.26,0,7.7,3.45,7.7,7.7v76.12h-93.41s0,0,0,0V55.36c0-4.25,3.45-7.7,7.7-7.7Z"></path><path class="w" d="m68.37,55.36v76.12c0,.11.09.2.2.2h93.42c.11,0,.2-.09.2-.2V55.36c0-4.36-3.54-7.9-7.9-7.9h-78.01c-4.36,0-7.9,3.55-7.9,7.9Zm.4,0c0-4.14,3.37-7.5,7.5-7.5h78.01c4.14,0,7.5,3.37,7.5,7.5v75.92h-93.02V55.36Z"></path><path class="ac" d="m152.01,54.53c1.13,0,2.05.92,2.05,2.05v61.09c0,1.13-.92,2.05-2.05,2.05s-2.05-.92-2.05-2.05v-61.09c0-1.13.92-2.05,2.05-2.05Z"></path><path class="t" d="m149.76,56.58v61.09c0,1.24,1.01,2.25,2.25,2.25s2.25-1.01,2.25-2.25v-61.09c0-1.24-1.01-2.25-2.25-2.25s-2.25,1.01-2.25,2.25Zm.4,0c0-1.02.83-1.85,1.85-1.85s1.85.83,1.85,1.85v61.09c0,1.02-.83,1.85-1.85,1.85s-1.85-.83-1.85-1.85v-61.09Z"></path><path class="y" d="m152.01,83.01c1.13,0,2.05.92,2.05,2.05v32.61c0,1.13-.92,2.05-2.05,2.05s-2.05-.92-2.05-2.05v-32.61c0-1.13.92-2.05,2.05-2.05Z"></path><path class="t" d="m149.76,85.06v32.61c0,1.24,1.01,2.25,2.25,2.25s2.25-1.01,2.25-2.25v-32.61c0-1.24-1.01-2.25-2.25-2.25s-2.25,1.01-2.25,2.25Zm.4,0c0-1.02.83-1.85,1.85-1.85s1.85.83,1.85,1.85v32.61c0,1.02-.83,1.85-1.85,1.85s-1.85-.83-1.85-1.85v-32.61Z"></path><path class="ac" d="m139.96,54.53c1.13,0,2.05.92,2.05,2.05v61.09c0,1.13-.92,2.05-2.05,2.05s-2.05-.92-2.05-2.05v-61.09c0-1.13.92-2.05,2.05-2.05Z"></path><path class="t" d="m137.7,56.58v61.09c0,1.24,1.01,2.25,2.25,2.25s2.25-1.01,2.25-2.25v-61.09c0-1.24-1.01-2.25-2.25-2.25s-2.25,1.01-2.25,2.25Zm.4,0c0-1.02.83-1.85,1.85-1.85s1.85.83,1.85,1.85v61.09c0,1.02-.83,1.85-1.85,1.85s-1.85-.83-1.85-1.85v-61.09Z"></path><path class="o" d="m139.96,96.18c1.13,0,2.05.92,2.05,2.05v19.45c0,1.13-.92,2.05-2.05,2.05s-2.05-.92-2.05-2.05v-19.45c0-1.13.92-2.05,2.05-2.05Z"></path><path class="w" d="m137.7,98.23v19.45c0,1.24,1.01,2.25,2.25,2.25s2.25-1.01,2.25-2.25v-19.45c0-1.24-1.01-2.25-2.25-2.25s-2.25,1.01-2.25,2.25Zm.4,0c0-1.02.83-1.85,1.85-1.85s1.85.83,1.85,1.85v19.45c0,1.02-.83,1.85-1.85,1.85s-1.85-.83-1.85-1.85v-19.45Z"></path><circle class="o" cx="139.96" cy="101.04" r="3.33" transform="translate(9.46 214.04) rotate(-76.72)"></circle><path class="w" d="m136.43,101.04c0,1.94,1.58,3.52,3.53,3.52s3.52-1.58,3.52-3.52-1.58-3.52-3.52-3.52-3.53,1.58-3.53,3.52Zm.4,0c0-1.72,1.4-3.13,3.13-3.13s3.13,1.4,3.13,3.13-1.4,3.13-3.13,3.13-3.13-1.4-3.13-3.13Z"></path><path class="ac" d="m127.9,54.53c1.13,0,2.05.92,2.05,2.05v61.09c0,1.13-.92,2.05-2.05,2.05s-2.05-.92-2.05-2.05v-61.09c0-1.13.92-2.05,2.05-2.05Z"></path><path class="t" d="m125.65,56.58v61.09c0,1.24,1.01,2.25,2.25,2.25s2.25-1.01,2.25-2.25v-61.09c0-1.24-1.01-2.25-2.25-2.25s-2.25,1.01-2.25,2.25Zm.4,0c0-1.02.83-1.85,1.85-1.85s1.85.83,1.85,1.85v61.09c0,1.02-.83,1.85-1.85,1.85s-1.85-.83-1.85-1.85v-61.09Z"></path><path class="w" d="m127.9,66.03c1.13,0,2.05.92,2.05,2.05v49.59c0,1.13-.92,2.05-2.05,2.05s-2.05-.92-2.05-2.05v-49.59c0-1.13.92-2.05,2.05-2.05Z"></path><path class="t" d="m125.65,68.09v49.59c0,1.24,1.01,2.25,2.25,2.25s2.25-1.01,2.25-2.25v-49.59c0-1.24-1.01-2.25-2.25-2.25s-2.25,1.01-2.25,2.25Zm.4,0c0-1.02.83-1.85,1.85-1.85s1.85.83,1.85,1.85v49.59c0,1.02-.83,1.85-1.85,1.85s-1.85-.83-1.85-1.85v-49.59Z"></path><path class="ac" d="m115.84,54.53h0c1.13,0,2.05.92,2.05,2.05v61.09c0,1.13-.92,2.05-2.05,2.05s-2.05-.92-2.05-2.05v-61.09c0-1.13.92-2.05,2.05-2.05Z"></path><path class="t" d="m113.59,56.58v61.09c0,1.24,1.01,2.25,2.25,2.25s2.25-1.01,2.25-2.25v-61.09c0-1.24-1.01-2.25-2.25-2.25s-2.25,1.01-2.25,2.25Zm.4,0c0-1.02.83-1.85,1.85-1.85s1.85.83,1.85,1.85v61.09c0,1.02-.83,1.85-1.85,1.85s-1.85-.83-1.85-1.85v-61.09Z"></path><path class="aj" d="m115.84,84.87h0c1.13,0,2.05.92,2.05,2.05v30.75c0,1.13-.92,2.05-2.05,2.05s-2.05-.92-2.05-2.05v-30.75c0-1.13.92-2.05,2.05-2.05Z"></path><path class="t" d="m113.59,86.92v30.75c0,1.24,1.01,2.25,2.25,2.25s2.25-1.01,2.25-2.25v-30.75c0-1.24-1.01-2.25-2.25-2.25s-2.25,1.01-2.25,2.25Zm.4,0c0-1.02.83-1.85,1.85-1.85s1.85.83,1.85,1.85v30.75c0,1.02-.83,1.85-1.85,1.85s-1.85-.83-1.85-1.85v-30.75Z"></path><path class="ac" d="m102.66,54.53c1.13,0,2.05.92,2.05,2.05v61.09c0,1.13-.92,2.05-2.05,2.05s-2.05-.92-2.05-2.05v-61.09c0-1.13.92-2.05,2.05-2.05Z"></path><path class="t" d="m100.41,56.58v61.09c0,1.24,1.01,2.25,2.25,2.25s2.25-1.01,2.25-2.25v-61.09c0-1.24-1.01-2.25-2.25-2.25s-2.25,1.01-2.25,2.25Zm.4,0c0-1.02.83-1.85,1.85-1.85s1.85.83,1.85,1.85v61.09c0,1.02-.83,1.85-1.85,1.85s-1.85-.83-1.85-1.85v-61.09Z"></path><path class="n" d="m102.66,73.57c1.13,0,2.05.92,2.05,2.05v42.05c0,1.13-.92,2.05-2.05,2.05s-2.05-.92-2.05-2.05v-42.05c0-1.13.92-2.05,2.05-2.05Z"></path><path class="t" d="m100.41,75.62v42.05c0,1.24,1.01,2.25,2.25,2.25s2.25-1.01,2.25-2.25v-42.05c0-1.24-1.01-2.25-2.25-2.25s-2.25,1.01-2.25,2.25Zm.4,0c0-1.02.83-1.85,1.85-1.85s1.85.83,1.85,1.85v42.05c0,1.02-.83,1.85-1.85,1.85s-1.85-.83-1.85-1.85v-42.05Z"></path><circle class="aj" cx="116.08" cy="90.04" r="3.33" transform="translate(1.78 182.33) rotate(-76.72)"></circle><path class="t" d="m112.56,90.04c0,1.94,1.58,3.53,3.53,3.53s3.52-1.58,3.52-3.53-1.58-3.52-3.52-3.52-3.53,1.58-3.53,3.52Zm.4,0c0-1.72,1.4-3.13,3.13-3.13s3.13,1.4,3.13,3.13-1.4,3.13-3.13,3.13-3.13-1.4-3.13-3.13Z"></path><circle class="w" cx="127.9" cy="70.72" r="3.33"></circle><path class="t" d="m124.37,70.72c0,1.94,1.58,3.52,3.52,3.52s3.52-1.58,3.52-3.52-1.58-3.52-3.52-3.52-3.52,1.58-3.52,3.52Zm.4,0c0-1.72,1.4-3.13,3.13-3.13s3.13,1.4,3.13,3.13-1.4,3.13-3.13,3.13-3.13-1.4-3.13-3.13Z"></path><path class="ac" d="m90.61,54.53h0c1.13,0,2.05.92,2.05,2.05v61.09c0,1.13-.92,2.05-2.05,2.05s-2.05-.92-2.05-2.05v-61.09c0-1.13.92-2.05,2.05-2.05Z"></path><path class="t" d="m88.36,56.58v61.09c0,1.24,1.01,2.25,2.25,2.25s2.25-1.01,2.25-2.25v-61.09c0-1.24-1.01-2.25-2.25-2.25s-2.25,1.01-2.25,2.25Zm.4,0c0-1.02.83-1.85,1.85-1.85s1.85.83,1.85,1.85v61.09c0,1.02-.83,1.85-1.85,1.85s-1.85-.83-1.85-1.85v-61.09Z"></path><path class="w" d="m90.61,96.18h0c1.13,0,2.05.92,2.05,2.05v19.45c0,1.13-.92,2.05-2.05,2.05s-2.05-.92-2.05-2.05v-19.45c0-1.13.92-2.05,2.05-2.05Z"></path><path class="w" d="m88.36,98.23v19.45c0,1.24,1.01,2.25,2.25,2.25s2.25-1.01,2.25-2.25v-19.45c0-1.24-1.01-2.25-2.25-2.25s-2.25,1.01-2.25,2.25Zm.4,0c0-1.02.83-1.85,1.85-1.85s1.85.83,1.85,1.85v19.45c0,1.02-.83,1.85-1.85,1.85s-1.85-.83-1.85-1.85v-19.45Z"></path><circle class="w" cx="90.61" cy="100.68" r="3.33" transform="translate(-28.2 165.73) rotate(-76.72)"></circle><path class="w" d="m87.08,100.68c0,1.94,1.58,3.52,3.52,3.52s3.52-1.58,3.52-3.52-1.58-3.52-3.52-3.52-3.52,1.58-3.52,3.52Zm.4,0c0-1.72,1.4-3.13,3.13-3.13s3.13,1.4,3.13,3.13-1.4,3.13-3.13,3.13-3.13-1.4-3.13-3.13Z"></path><path class="ac" d="m78.55,54.53h0c1.13,0,2.05.92,2.05,2.05v61.09c0,1.13-.92,2.05-2.05,2.05s-2.05-.92-2.05-2.05v-61.09c0-1.13.92-2.05,2.05-2.05Z"></path><path class="t" d="m76.3,56.58v61.09c0,1.24,1.01,2.25,2.25,2.25s2.25-1.01,2.25-2.25v-61.09c0-1.24-1.01-2.25-2.25-2.25s-2.25,1.01-2.25,2.25Zm.4,0c0-1.02.83-1.85,1.85-1.85s1.85.83,1.85,1.85v61.09c0,1.02-.83,1.85-1.85,1.85s-1.85-.83-1.85-1.85v-61.09Z"></path><path class="n" d="m78.55,65.51h0c1.13,0,2.05.92,2.05,2.05v50.11c0,1.13-.92,2.05-2.05,2.05s-2.05-.92-2.05-2.05v-50.11c0-1.13.92-2.05,2.05-2.05Z"></path><path class="t" d="m76.3,67.56v50.11c0,1.24,1.01,2.25,2.25,2.25s2.25-1.01,2.25-2.25v-50.11c0-1.24-1.01-2.25-2.25-2.25s-2.25,1.01-2.25,2.25Zm.4,0c0-1.02.83-1.85,1.85-1.85s1.85.83,1.85,1.85v50.11c0,1.02-.83,1.85-1.85,1.85s-1.85-.83-1.85-1.85v-50.11Z"></path><polygon class="t" points="137.15 128.63 137.36 130.17 133.97 130.17 134.17 128.63 137.15 128.63"></polygon><path class="t" d="m133.99,128.43l-.25,1.93h3.84s-.25-1.93-.25-1.93h-3.33Zm.2,1.54l.15-1.14h2.63s.15,1.14.15,1.14h-2.93Z"></path><polygon class="t" points="132.93 128.63 133.13 130.17 129.74 130.17 129.94 128.63 132.93 128.63"></polygon><path class="t" d="m129.77,128.43l-.25,1.93h3.84s-.25-1.93-.25-1.93h-3.34Zm.2,1.54l.15-1.14h2.64s.15,1.14.15,1.14h-2.93Z"></path><polygon class="t" points="128.7 128.63 128.9 130.17 125.51 130.17 125.71 128.63 128.7 128.63"></polygon><path class="t" d="m125.54,128.43l-.25,1.93h3.84s-.25-1.93-.25-1.93h-3.33Zm.2,1.54l.15-1.14h2.63s.15,1.14.15,1.14h-2.93Z"></path><polygon class="t" points="122.03 128.63 122.24 130.17 90.94 130.17 91.15 128.63 122.03 128.63"></polygon><path class="t" d="m90.98,128.43l-.27,1.94h31.76s-.27-1.94-.27-1.94h-31.23Zm.19,1.54l.16-1.14h30.53s.16,1.14.16,1.14h-30.85Z"></path><polygon class="t" points="87.17 128.63 87.37 130.17 83.98 130.17 84.18 128.63 87.17 128.63"></polygon><path class="t" d="m84.01,128.43l-.25,1.93h3.84s-.25-1.93-.25-1.93h-3.34Zm.2,1.54l.15-1.14h2.63s.15,1.14.15,1.14h-2.93Z"></path><polygon class="t" points="83.59 128.63 83.79 130.17 80.4 130.17 80.6 128.63 83.59 128.63"></polygon><path class="t" d="m80.43,128.43l-.25,1.93h3.84s-.25-1.93-.25-1.93h-3.33Zm.2,1.54l.15-1.14h2.63s.15,1.14.15,1.14h-2.93Z"></path><polygon class="t" points="79.36 128.63 79.56 130.17 76.17 130.17 76.37 128.63 79.36 128.63"></polygon><path class="t" d="m76.2,128.43l-.25,1.93h3.84s-.25-1.93-.25-1.93h-3.34Zm.2,1.54l.15-1.14h2.63s.15,1.14.15,1.14h-2.93Z"></path><polygon class="t" points="75.13 128.63 75.33 130.17 71.95 130.17 72.15 128.63 75.13 128.63"></polygon><path class="t" d="m71.97,128.43l-.25,1.93h3.84s-.25-1.93-.25-1.93h-3.33Zm.2,1.54l.15-1.14h2.63s.15,1.14.15,1.14h-2.93Z"></path><polygon class="t" points="70.9 128.63 71.1 130.17 67.72 130.17 67.92 128.63 70.9 128.63"></polygon><path class="t" d="m67.74,128.43l-.25,1.93h3.84s-.25-1.93-.25-1.93h-3.33Zm.2,1.54l.15-1.14h2.63s.15,1.14.15,1.14h-2.93Z"></path><rect class="t" x="103.41" y="130.17" width="63.65" height="1.84"></rect><path class="t" d="m167.26,129.97h-64.05s0,2.24,0,2.24h64.05s0-2.24,0-2.24Zm-.4,1.84h-63.25v-1.45h63.25v1.45Z"></path><polygon class="n" points="135 128.63 135.2 130.17 131.82 130.17 132.02 128.63 135 128.63"></polygon><path class="t" d="m131.82,128.6l-.2,1.54c0,.06,0,.11.05.16.04.04.09.07.15.07h3.39c.06,0,.11-.02.15-.07.04-.04.06-.1.05-.16l-.2-1.54c-.01-.1-.1-.17-.2-.17h-2.99c-.1,0-.19.07-.2.17Zm.23,1.36l.15-1.14h2.63s.15,1.14.15,1.14h-2.93Z"></path><polygon class="t" points="142.78 128.63 142.98 130.17 139.59 130.17 139.79 128.63 142.78 128.63"></polygon><path class="t" d="m139.62,128.43l-.25,1.93h3.84s-.25-1.93-.25-1.93h-3.34Zm.2,1.54l.15-1.14h2.63s.15,1.14.15,1.14h-2.93Z"></path><polygon class="n" points="140.63 128.63 140.83 130.17 137.44 130.17 137.64 128.63 140.63 128.63"></polygon><path class="t" d="m137.44,128.6l-.2,1.54c0,.06,0,.11.05.16.04.04.09.07.15.07h3.39c.06,0,.11-.02.15-.07.04-.04.06-.1.05-.16l-.2-1.54c-.01-.1-.1-.17-.2-.17h-2.99c-.1,0-.18.07-.2.17Zm.22,1.36l.15-1.14h2.63s.15,1.14.15,1.14h-2.93Z"></path><polygon class="t" points="148.4 128.63 148.6 130.17 145.21 130.17 145.42 128.63 148.4 128.63"></polygon><path class="t" d="m145.24,128.43l-.25,1.93h3.84s-.25-1.93-.25-1.93h-3.34Zm.2,1.54l.15-1.14h2.63s.15,1.14.15,1.14h-2.93Z"></path><polygon class="n" points="146.25 128.63 146.45 130.17 143.06 130.17 143.26 128.63 146.25 128.63"></polygon><path class="t" d="m143.07,128.6l-.2,1.54c0,.06,0,.11.05.16.04.04.09.07.15.07h3.39c.06,0,.11-.02.15-.07.04-.04.06-.1.05-.16l-.2-1.54c-.01-.1-.1-.17-.2-.17h-2.99c-.1,0-.18.07-.2.17Zm.22,1.36l.15-1.14h2.63s.15,1.14.15,1.14h-2.93Z"></path><polygon class="t" points="154.02 128.63 154.23 130.17 150.84 130.17 151.04 128.63 154.02 128.63"></polygon><path class="t" d="m150.86,128.43l-.25,1.93h3.84s-.25-1.93-.25-1.93h-3.34Zm.2,1.54l.15-1.14h2.63s.15,1.14.15,1.14h-2.93Z"></path><polygon class="n" points="151.87 128.63 152.07 130.17 148.69 130.17 148.89 128.63 151.87 128.63"></polygon><path class="t" d="m148.69,128.6l-.2,1.54c0,.06.01.11.05.16.04.04.09.07.15.07h3.39c.06,0,.11-.02.15-.07.04-.04.06-.1.05-.16l-.2-1.54c-.01-.1-.1-.17-.2-.17h-2.98c-.1,0-.19.07-.2.17Zm.22,1.36l.15-1.14h2.63s.15,1.14.15,1.14h-2.93Z"></path><polygon class="t" points="159.65 128.63 159.85 130.17 156.46 130.17 156.66 128.63 159.65 128.63"></polygon><path class="t" d="m156.49,128.43l-.25,1.93h3.84s-.25-1.93-.25-1.93h-3.34Zm.2,1.54l.15-1.14h2.63s.15,1.14.15,1.14h-2.93Z"></path><polygon class="n" points="157.5 128.63 157.7 130.17 154.31 130.17 154.51 128.63 157.5 128.63"></polygon><path class="t" d="m154.31,128.6l-.2,1.54c0,.06,0,.11.05.16.04.04.09.07.15.07h3.39c.06,0,.11-.02.15-.07.04-.04.06-.1.05-.16l-.2-1.54c-.01-.1-.1-.17-.2-.17h-2.99c-.1,0-.19.07-.2.17Zm.22,1.36l.15-1.14h2.63s.15,1.14.15,1.14h-2.93Z"></path><polygon class="t" points="165.27 128.63 165.47 130.17 162.08 130.17 162.28 128.63 165.27 128.63"></polygon><path class="t" d="m162.11,128.43l-.25,1.93h3.84s-.25-1.93-.25-1.93h-3.34Zm.2,1.54l.15-1.14h2.63s.15,1.14.15,1.14h-2.93Z"></path><polygon class="n" points="163.12 128.63 163.32 130.17 159.93 130.17 160.13 128.63 163.12 128.63"></polygon><path class="t" d="m159.94,128.6l-.2,1.54c0,.06.01.11.05.16.04.04.09.07.15.07h3.39c.06,0,.11-.02.15-.07.04-.04.06-.1.05-.16l-.2-1.54c-.01-.1-.1-.17-.2-.17h-2.99c-.1,0-.19.07-.2.17Zm.22,1.36l.15-1.14h2.63s.15,1.14.15,1.14h-2.93Z"></path><polygon class="n" points="130.78 128.63 130.98 130.17 127.59 130.17 127.79 128.63 130.78 128.63"></polygon><path class="t" d="m127.59,128.6l-.2,1.54c0,.06.01.11.05.16.04.04.09.07.15.07h3.39c.06,0,.11-.02.15-.07.04-.04.06-.1.05-.16l-.2-1.54c-.01-.1-.1-.17-.2-.17h-2.98c-.1,0-.19.07-.2.17Zm.22,1.36l.15-1.14h2.63s.15,1.14.15,1.14h-2.93Z"></path><polygon class="n" points="126.55 128.63 126.75 130.17 123.36 130.17 123.56 128.63 126.55 128.63"></polygon><path class="t" d="m123.37,128.6l-.2,1.54c0,.06.01.11.05.16.04.04.09.07.15.07h3.39c.06,0,.11-.02.15-.07.04-.04.06-.1.05-.16l-.2-1.54c-.01-.1-.1-.17-.2-.17h-2.99c-.1,0-.19.07-.2.17Zm.22,1.36l.15-1.14h2.63s.15,1.14.15,1.14h-2.93Z"></path><polygon class="n" points="119.78 128.63 119.99 130.17 88.68 130.17 88.9 128.63 119.78 128.63"></polygon><path class="t" d="m88.7,128.6l-.21,1.54c0,.06,0,.12.05.16.04.04.09.07.15.07h31.3c.06,0,.11-.02.15-.07.04-.04.06-.1.05-.16l-.21-1.54c-.01-.1-.1-.17-.2-.17h-30.88c-.1,0-.18.07-.2.17Zm.22,1.36l.16-1.14h30.53s.16,1.14.16,1.14h-30.85Z"></path><polygon class="n" points="85.66 128.63 85.86 130.17 82.48 130.17 82.68 128.63 85.66 128.63"></polygon><path class="t" d="m82.48,128.6l-.2,1.54c0,.06,0,.11.05.16.04.04.09.07.15.07h3.39c.06,0,.11-.02.15-.07.04-.04.06-.1.05-.16l-.2-1.54c-.01-.1-.1-.17-.2-.17h-2.98c-.1,0-.19.07-.2.17Zm.22,1.36l.15-1.14h2.63s.15,1.14.15,1.14h-2.93Z"></path><polygon class="n" points="81.44 128.63 81.64 130.17 78.25 130.17 78.45 128.63 81.44 128.63"></polygon><path class="t" d="m78.25,128.6l-.2,1.54c0,.06,0,.11.05.16.04.04.09.07.15.07h3.39c.06,0,.11-.02.15-.07.04-.04.06-.1.05-.16l-.2-1.54c-.01-.1-.1-.17-.2-.17h-2.98c-.1,0-.19.07-.2.17Zm.22,1.36l.15-1.14h2.63s.15,1.14.15,1.14h-2.93Z"></path><polygon class="n" points="77.21 128.63 77.41 130.17 74.02 130.17 74.22 128.63 77.21 128.63"></polygon><path class="t" d="m74.03,128.6l-.2,1.54c0,.06.01.11.05.16.04.04.09.07.15.07h3.39c.06,0,.11-.02.15-.07.04-.04.06-.1.05-.16l-.2-1.54c-.01-.1-.1-.17-.2-.17h-2.99c-.1,0-.19.07-.2.17Zm.22,1.36l.15-1.14h2.63s.15,1.14.15,1.14h-2.93Z"></path><polygon class="n" points="72.98 128.63 73.18 130.17 69.79 130.17 70 128.63 72.98 128.63"></polygon><path class="t" d="m69.8,128.6l-.2,1.54c0,.06,0,.11.05.16.04.04.09.07.15.07h3.39c.06,0,.11-.02.15-.07.04-.04.06-.1.05-.16l-.2-1.54c-.01-.1-.1-.17-.2-.17h-2.99c-.1,0-.19.07-.2.17Zm.23,1.36l.15-1.14h2.63s.15,1.14.15,1.14h-2.93Z"></path><polygon class="n" points="68.75 128.63 68.95 130.17 65.57 130.17 65.77 128.63 68.75 128.63"></polygon><path class="t" d="m65.57,128.6l-.2,1.54c0,.06,0,.11.05.16.04.04.09.07.15.07h3.39c.06,0,.11-.02.15-.07.04-.04.06-.1.05-.16l-.2-1.54c-.01-.1-.1-.17-.2-.17h-2.98c-.1,0-.19.07-.2.17Zm.22,1.36l.15-1.14h2.63s.15,1.14.15,1.14h-2.93Z"></path><rect class="n" x="63.51" y="130.17" width="84.01" height="1.84"></rect><path class="t" d="m63.31,130.17v1.84c0,.11.09.2.2.2h84.01c.11,0,.2-.09.2-.2v-1.84c0-.11-.09-.2-.2-.2H63.51c-.11,0-.2.09-.2.2Zm.4.2h83.62v1.45H63.71v-1.45Z"></path><circle class="y" cx="152" cy="87.74" r="3.33" transform="translate(31.68 215.51) rotate(-76.72)"></circle><path class="t" d="m148.47,87.74c0,1.94,1.58,3.52,3.53,3.52s3.52-1.58,3.52-3.52-1.58-3.52-3.52-3.52-3.53,1.58-3.53,3.52Zm.4,0c0-1.72,1.4-3.13,3.13-3.13s3.13,1.4,3.13,3.13-1.4,3.13-3.13,3.13-3.13-1.4-3.13-3.13Z"></path><g class="v"><g class="x"><path class="o" d="m73.65,24.96h0c-1.34.19-2.49.9-3.29,1.98-.81,1.11-1.17,2.49-.99,3.89.19,1.58,1.03,2.92,2.2,3.75.62-.66,1.39-1.14,2.22-1.41l-.09-.76c-.84-.19-1.46-.87-1.67-1.86l-.03-.02c-.28-.19-.3-.64-.32-1.17-.02-.37-.03-.8-.13-1.18-.15-.54-.12-.99.11-1.36.22-.35.62-.58,1.12-.65.71-.1,1.61.14,1.93.69.04,0,.09-.02.15-.03.45-.06,1.3,0,1.8,1.24.28.69.24,1.38.05,1.71-.03.06-.07.1-.11.13.02.62-.14,1.18-.46,1.61-.19.26-.43.47-.71.63l.1.77c.89.04,1.76.31,2.53.79.07-.09.14-.17.21-.27.81-1.11,1.17-2.49.99-3.88-.35-2.91-2.87-4.97-5.61-4.61"></path><path d="m75.22,35.77s-.05,0-.08.01c.03,0,.05,0,.08-.01m-2.77-.28c.78.31,1.64.44,2.53.32h.04s-.04,0-.04,0c-.86.11-1.73,0-2.53-.32m5.22-.9c-.7.6-1.53,1.01-2.42,1.17.9-.17,1.73-.57,2.42-1.17m.04-.04s0,0,0,0c0,0,0,0,0,0m-4.1-9.94c-1.4.2-2.64.96-3.5,2.14-.88,1.19-1.25,2.68-1.07,4.18.21,1.72,1.14,3.17,2.43,4.04l-.06-.12.06-.15s.07-.08.11-.11c-1.17-.83-2.01-2.16-2.2-3.75-.17-1.4.18-2.78.99-3.89.79-1.09,1.95-1.8,3.29-1.98h0c2.74-.36,5.26,1.71,5.61,4.61.17,1.39-.18,2.77-.99,3.88-.07.09-.14.18-.21.27.04.02.08.05.12.08l.06.13-.05.13c.11-.13.22-.26.32-.41.88-1.19,1.25-2.67,1.07-4.18-.38-3.07-3.04-5.26-5.98-4.87"></path><path class="t" d="m71.97,28.61c.02.2.03.39.04.57.03-.17.08-.34.13-.51-.04-.01-.09-.03-.13-.05-.01,0-.03-.01-.04-.02m2.99-1.42c.75.32,1.35,1.09,1.57,2.06.02-.26-.01-.61-.17-1-.39-.97-1.02-1.09-1.4-1.06m-2.17-.66c-.39.06-.7.23-.86.47-.09.15-.14.33-.14.54.35-.36,1-.64,1.57-.72.33-.05.76-.05,1.03.2-.26-.36-.96-.59-1.6-.5"></path><path class="t" d="m72.79,26.18c-.5.07-.91.3-1.12.65-.23.36-.27.82-.11,1.36.1.38.12.81.13,1.18.02.53.04.99.32,1.17l.03.02c-.02-.1-.04-.2-.05-.3-.04-.37-.03-.73.03-1.08,0-.19-.02-.38-.04-.57-.42-.2-.46-.47-.42-.66.03-.14.12-.27.24-.4,0-.21.05-.39.14-.54.16-.25.47-.42.86-.47.64-.09,1.34.13,1.6.5,0,0,0,0,.01,0,.19.02.38.07.56.15.38-.03,1.01.09,1.4,1.06.16.39.19.74.17,1,.03.11.05.23.06.34.01.11.02.22.02.32.03-.03.07-.07.11-.13.18-.33.23-1.03-.05-1.71-.5-1.24-1.35-1.3-1.8-1.24-.06,0-.11.02-.15.03-.32-.55-1.22-.79-1.93-.69"></path><path class="o" d="m73.84,33.52c-.75.24-1.44.67-2,1.24.95.57,2.06.82,3.14.67l.04.18v-.18c1.06-.15,2.04-.65,2.8-1.43-.69-.42-1.46-.66-2.24-.71,0,.2-.07.38-.19.55-.14.2-.35.33-.59.36h0c-.43.06-.83-.24-.94-.68"></path><path d="m73.79,33.17c-.84.27-1.6.76-2.22,1.41-.04.04-.07.08-.11.11l-.06.15.06.12h0c.31.22.64.39.98.52.8.32,1.67.43,2.53.32h.04s.08-.02.12-.02c.03,0,.05,0,.08-.01.01,0,.02,0,.03,0,.89-.17,1.72-.58,2.42-1.17.01-.01.03-.02.04-.03,0,0,0,0,0,0,.17-.15.33-.31.48-.47h0s.05-.15.05-.15l-.06-.13s-.08-.05-.12-.08c-.77-.48-1.63-.75-2.53-.79l.03.2c0,.05,0,.11,0,.16.78.05,1.55.28,2.24.71-.76.78-1.74,1.28-2.8,1.43v.18s-.04-.18-.04-.18c-1.08.14-2.19-.1-3.14-.67.56-.58,1.25-1,2-1.24,0-.03-.02-.07-.02-.11l-.03-.25"></path><path class="o" d="m75.13,32.31c-.17.06-.35.11-.53.14h-.02c-.18.03-.36.03-.52.02l.11.86c.04.32.33.56.64.52.14-.02.26-.1.34-.21.09-.12.12-.26.1-.41l-.11-.92m-.53-.04h0s0,0,0,0h0"></path><path d="m75.45,32.16c-.1.06-.21.11-.32.15l.11.92c.02.15-.02.3-.1.41-.08.12-.21.19-.34.21-.31.04-.6-.2-.64-.52l-.11-.86c-.12,0-.23-.03-.35-.05l.09.76.03.25s.01.07.02.11c.11.44.51.74.94.68h0c.24-.03.45-.16.59-.36.12-.17.19-.35.19-.55,0-.05,0-.11,0-.16l-.03-.2-.1-.77"></path><path class="o" d="m74.41,27.41c-.17.33-.7,1.23-1.57,1.35-.13.02-.25.02-.38,0-.16.43-.21.92-.15,1.41.16,1.31,1.07,2.09,2.26,1.93l.02.18h0s0-.18,0-.18c.54-.08,1.01-.35,1.31-.75.31-.42.44-1,.36-1.64-.15-1.21-.94-2.14-1.86-2.29"></path><path d="m74.4,27.04s.03.03.05.05l.06.09-.05.1s-.02.05-.06.12c.92.14,1.71,1.07,1.86,2.29.08.65-.05,1.22-.36,1.64-.3.4-.76.68-1.31.75v.18s0,0,0,0h0s-.02-.18-.02-.18c-1.19.16-2.11-.62-2.26-1.93-.06-.49,0-.98.15-1.41-.1-.01-.21-.04-.31-.08-.06.16-.1.33-.13.51-.06.35-.07.71-.03,1.08.01.1.03.2.05.3.21.99.83,1.66,1.67,1.86.11.03.23.04.35.05.17.01.34,0,.52-.02h.02c.19-.03.36-.08.53-.14.11-.04.22-.09.32-.15.28-.16.52-.37.71-.63.32-.44.47-.99.46-1.61,0-.11,0-.21-.02-.32-.01-.12-.04-.23-.06-.34-.22-.97-.82-1.74-1.57-2.06-.18-.08-.37-.13-.56-.15"></path><path class="t" d="m73.36,27.2c-.71.1-1.43.53-1.49.8-.03.14.2.26.3.3.23.11.46.13.67.1.68-.1,1.12-.81,1.28-1.1-.16-.11-.42-.14-.75-.09"></path><path class="t" d="m72.84,28.39c-.22.03-.44,0-.67-.1-.1-.04-.33-.15-.3-.3.06-.27.78-.7,1.49-.8.33-.05.59-.01.75.09-.15.29-.59,1.01-1.28,1.1m.52-1.56c-.58.08-1.23.36-1.57.72-.12.13-.21.26-.24.4-.04.19,0,.46.42.66.01,0,.03.01.04.02.04.02.09.03.13.05.11.04.21.06.31.08.13.02.25.02.38,0,.87-.12,1.4-1.02,1.57-1.35.03-.07.05-.11.06-.12l.05-.1-.06-.09s-.03-.04-.05-.05c0,0,0,0-.01,0-.27-.25-.7-.25-1.03-.2"></path></g></g><g class="v"><g class="aa"><path class="o" d="m45.2,11.66c-1.34.19-2.49.89-3.3,1.99-.8,1.11-1.16,2.49-.98,3.88.19,1.59,1.03,2.92,2.2,3.75.62-.66,1.38-1.14,2.22-1.41l-.09-.76c-.84-.2-1.46-.86-1.67-1.86h-.03c-.29-.19-.3-.66-.32-1.19-.02-.37-.03-.79-.14-1.17-.15-.54-.11-1,.11-1.36.22-.35.63-.59,1.13-.66.71-.1,1.61.14,1.93.7.05-.01.1-.02.17-.03.45-.06,1.29.01,1.78,1.24.28.7.24,1.38.04,1.71-.03.06-.07.1-.1.13.02.62-.14,1.17-.46,1.62-.19.25-.42.46-.7.62l.1.78c.9.04,1.76.31,2.52.79.07-.08.14-.17.21-.26.81-1.12,1.16-2.49.99-3.89-.36-2.91-2.88-4.97-5.62-4.61"></path><path d="m46.76,22.47s-.04,0-.06.01c.02,0,.04,0,.06-.01m.15-.03s-.06.01-.09.02c.03,0,.06-.01.09-.02m-1.73-11.13c-1.4.2-2.64.96-3.51,2.14-.88,1.19-1.25,2.68-1.06,4.18.21,1.73,1.14,3.17,2.43,4.04l-.06-.11.06-.15s.07-.07.1-.11c-1.17-.83-2.01-2.16-2.2-3.75-.17-1.39.18-2.77.98-3.88.8-1.1,1.96-1.81,3.3-1.99,2.74-.36,5.26,1.71,5.62,4.61.17,1.4-.18,2.77-.99,3.89-.07.09-.14.18-.21.26.04.02.07.05.11.07l.07.13-.06.15c-.76.86-1.75,1.44-2.83,1.66,1.25-.26,2.37-.99,3.16-2.07.88-1.19,1.25-2.68,1.07-4.18-.38-3.08-3.04-5.26-5.98-4.87"></path><path class="t" d="m43.53,15.31c.02.19.03.38.04.56.03-.17.08-.33.13-.49-.04-.02-.09-.03-.13-.05-.01,0-.02-.01-.04-.02m2.99-1.42c.75.32,1.35,1.09,1.57,2.07.02-.26,0-.61-.17-1-.39-.97-1.01-1.1-1.4-1.07m-2.17-.65c-.4.06-.71.22-.87.48-.1.15-.14.33-.14.54.35-.36,1-.65,1.58-.73.33-.05.75-.04,1.02.21,0,0,.01,0,.01,0-.26-.36-.96-.59-1.61-.5"></path><path class="t" d="m44.35,12.88c-.5.07-.91.31-1.13.66-.22.36-.27.82-.11,1.36.11.38.13.8.14,1.17.02.53.03,1,.32,1.18h.03c-.02-.09-.04-.19-.05-.29-.05-.37-.04-.74.03-1.09,0-.18-.02-.37-.04-.56-.42-.19-.47-.46-.42-.66.03-.14.11-.27.23-.39,0-.21.04-.4.14-.54.16-.26.47-.42.87-.48.65-.09,1.35.14,1.61.5.19.02.38.07.56.15.39-.03,1,.1,1.4,1.07.16.39.19.75.17,1,.02.11.04.22.06.34.01.11.02.22.03.32.04-.03.07-.07.1-.13.19-.33.23-1.02-.04-1.71-.49-1.22-1.33-1.3-1.78-1.24-.06,0-.12.02-.17.03-.32-.56-1.22-.8-1.93-.7"></path><path class="o" d="m46.35,20.73h0s0,0,0,0h0m-.96-.51c-.76.25-1.44.67-1.99,1.24.94.58,2.06.83,3.14.68l.04.17v-.17c1.05-.15,2.04-.66,2.8-1.44-.69-.42-1.46-.66-2.25-.71-.01.2-.07.39-.19.55-.14.2-.36.33-.59.36h0c-.44.06-.84-.24-.95-.68"></path><path d="m45.35,19.88c-.84.27-1.6.75-2.22,1.41-.03.04-.07.07-.1.11l-.06.15.06.11h0c1.04.71,2.29,1,3.51.84h.04s.08-.02.12-.02c.02,0,.04,0,.06-.01.02,0,.04,0,.06-.01.03,0,.06-.01.09-.02,0,0,.01,0,.02,0,1.08-.23,2.07-.81,2.83-1.66l.06-.15-.07-.13s-.07-.05-.11-.07c-.76-.48-1.63-.75-2.52-.79l.02.2c0,.05,0,.11,0,.16.79.05,1.56.29,2.25.71-.76.78-1.75,1.29-2.8,1.44v.17s-.04-.17-.04-.17c-1.08.14-2.19-.1-3.14-.68.56-.57,1.24-.99,1.99-1.24,0-.04-.02-.07-.02-.11l-.03-.24"></path><path class="o" d="m46.68,19.01c-.17.07-.35.11-.54.14h-.02c-.18.03-.36.03-.52.02l.11.86c.04.33.33.57.63.52v.18s0,0,0,0v-.18c.14-.02.26-.09.35-.2.08-.12.12-.27.1-.41l-.11-.92"></path><path d="m47.01,18.86c-.1.06-.21.11-.32.15l.11.92c.02.14-.02.3-.1.41-.09.12-.21.18-.34.2v.18s0,0,0,0h0s0-.18,0-.18c-.3.04-.59-.19-.63-.52l-.11-.86c-.12,0-.24-.03-.35-.05l.09.76.03.24s.01.07.02.11c.11.44.51.74.95.68h0c.23-.03.45-.16.59-.36.11-.16.18-.35.19-.55,0-.05,0-.11,0-.16l-.02-.2-.1-.78"></path><path class="o" d="m45.97,14.11c-.17.33-.7,1.23-1.57,1.35-.13.02-.26.02-.39,0-.15.43-.21.92-.14,1.41.16,1.31,1.07,2.08,2.26,1.92l.02.18v-.18c.55-.08,1.02-.34,1.32-.75.31-.43.43-1,.36-1.65-.15-1.21-.93-2.14-1.84-2.29"></path><path d="m45.94,13.74s.04.04.06.07l.07.08-.05.11s-.02.05-.06.12c.92.15,1.7,1.08,1.84,2.29.08.65-.04,1.22-.36,1.65-.3.4-.76.67-1.31.75v.18s-.02-.18-.02-.18c-1.19.16-2.11-.61-2.26-1.92-.06-.49-.01-.98.14-1.41-.1-.01-.21-.04-.31-.07-.06.16-.1.32-.13.49-.07.35-.08.72-.03,1.09.01.1.03.2.05.3.21.99.83,1.66,1.67,1.86.11.03.23.04.35.05.17.01.34,0,.52-.02h.02c.19-.03.37-.08.54-.14.11-.04.22-.09.32-.15.28-.16.51-.37.7-.62.32-.44.48-1,.46-1.62,0-.11-.01-.21-.03-.32-.01-.12-.03-.23-.06-.34-.21-.98-.82-1.75-1.57-2.07-.18-.08-.37-.13-.56-.15,0,0,0,0-.01,0"></path><path class="t" d="m44.92,13.9c-.71.1-1.43.53-1.49.8-.03.14.19.26.3.3.23.1.46.13.67.1.68-.1,1.12-.82,1.27-1.11-.15-.11-.42-.14-.74-.09"></path><path class="t" d="m44.4,15.1c-.22.03-.44,0-.67-.1-.1-.05-.33-.16-.3-.3.06-.27.78-.7,1.49-.8.33-.05.59-.01.74.09-.14.29-.59,1.02-1.27,1.11m.52-1.57c-.58.08-1.23.37-1.58.73-.12.12-.2.26-.23.39-.05.2,0,.47.42.66.01,0,.02.01.04.02.04.02.09.04.13.05.1.04.21.06.31.07.13.02.26.02.39,0,.88-.12,1.41-1.02,1.57-1.35.03-.06.05-.11.06-.12l.05-.11-.07-.08s-.04-.04-.06-.07c-.26-.25-.69-.25-1.02-.21"></path></g></g><g class="v"><g class="ab"><path class="o" d="m94.57,22.19c-1.31.18-2.45.89-3.25,1.98-.81,1.12-1.16,2.5-.98,3.9.21,1.58,1.05,2.9,2.22,3.71.61-.66,1.37-1.15,2.2-1.42v-.1s-1.85.26-1.85.26l-.05-.05c-.55-.57-.9-1.37-1.03-2.31-.17-1.29.13-2.58.82-3.52.55-.75,1.29-1.22,2.11-1.33,1.89-.27,3.69,1.45,4,3.84.13.94-.02,1.82-.41,2.54l-.05.08-1.81.25v.09c.89.03,1.76.29,2.53.76.06-.08.13-.16.19-.24.8-1.12,1.15-2.5.97-3.9-.38-2.88-2.9-4.92-5.61-4.54"></path><path d="m95.8,32.98s.03,0,.05,0c-.02,0-.03,0-.05,0m.37-.05s-.05,0-.08.01c.03,0,.05,0,.08-.01m-.51.07s.04,0,.06,0c-.02,0-.04,0-.06,0m-.13,0s.05,0,.07,0c-.02,0-.05,0-.07,0m-.13,0s.06,0,.09,0c-.03,0-.06,0-.09,0m-1.19-.11c.38.08.78.12,1.18.11-.4,0-.79-.03-1.18-.11m-.1-.02s.02,0,.03,0c-.01,0-.02,0-.03,0m-.11-.03h0s0,0,0,0m.57-11.01c-1.4.2-2.64.95-3.5,2.13-.87,1.2-1.24,2.69-1.05,4.18.23,1.72,1.16,3.15,2.45,4l-.07-.12.06-.15s.07-.08.11-.12c-1.17-.81-2.01-2.13-2.22-3.71-.18-1.4.17-2.78.98-3.9.79-1.09,1.94-1.79,3.25-1.98,2.72-.38,5.23,1.66,5.61,4.54.18,1.4-.17,2.78-.97,3.9-.06.08-.12.16-.19.24.04.02.08.05.11.07l.06.13-.06.15c-.78.89-1.82,1.5-2.95,1.71,1.3-.24,2.45-.99,3.26-2.1.88-1.2,1.25-2.69,1.05-4.18-.39-3.06-3.07-5.2-5.94-4.8"></path><path class="t" d="m94.76,23.65c-.72.1-1.38.52-1.85,1.18-.63.86-.89,2.04-.74,3.23.11.85.41,1.55.89,2.08l1.65-.23-.04-.33c-.8-.23-1.33-.98-1.48-2.14-.07-.53-.05-1.03.06-1.48l-.19.03.11-.28c.28-.67.78-1.17,1.36-1.37,0,0,0,0,0,0,.03,0,.05-.02.08-.03,0,0,.02,0,.03,0,.02,0,.04-.01.06-.02.01,0,.02,0,.03,0,.02,0,.03,0,.05-.01,0,0,.02,0,.03,0,.03,0,.05,0,.08-.01.04,0,.07,0,.11-.01,0,0,0,0,.01,0,.7-.06,1.37.28,1.88.92l.2.27-.2.03c.2.38.34.84.41,1.36.11.83-.03,1.54-.39,2.04-.14.18-.3.34-.49.46l.05.35,1.67-.23c.31-.63.42-1.37.31-2.2-.29-2.21-1.94-3.82-3.67-3.57"></path><path class="t" d="m94.76,23.3c-.82.11-1.56.58-2.11,1.33-.68.94-.98,2.23-.82,3.52.13.94.48,1.74,1.03,2.31l.05.05,1.84-.26-.05-.35-1.65.23c-.48-.53-.78-1.23-.89-2.08-.15-1.2.12-2.38.74-3.23.47-.65,1.13-1.08,1.85-1.18,1.73-.24,3.38,1.36,3.67,3.57.11.83,0,1.57-.31,2.2l-1.67.23.05.35,1.81-.25.05-.08c.39-.72.53-1.6.41-2.54-.31-2.39-2.11-4.1-4-3.84"></path><path class="o" d="m94.82,30.7c-.74.25-1.42.68-1.98,1.25.95.57,2.05.8,3.13.65s2.04-.66,2.81-1.45c-.69-.41-1.45-.65-2.23-.69,0,.19-.07.38-.18.54-.15.2-.36.34-.59.37-.44.06-.84-.23-.95-.68"></path><path d="m96.51,30.1l.03.21c0,.05,0,.1,0,.16.78.04,1.54.28,2.23.69-.76.79-1.75,1.3-2.81,1.45s-2.18-.07-3.13-.65c.55-.58,1.23-1.01,1.98-1.25,0-.03-.01-.07-.02-.1l-.03-.24c-.83.27-1.58.76-2.2,1.42-.04.04-.07.08-.11.12l-.06.15.07.12h0c.47.32.99.55,1.52.69,0,0,0,0,0,0,.03,0,.07.02.1.03.01,0,.02,0,.03,0,.02,0,.05.01.07.02.39.08.78.12,1.18.11,0,0,0,0,0,0,.03,0,.06,0,.09,0,.01,0,.03,0,.04,0,.02,0,.05,0,.07,0,.02,0,.04,0,.05,0,.02,0,.04,0,.06,0,.03,0,.05,0,.08,0,.02,0,.03,0,.05,0,.04,0,.08,0,.12-.02s.08-.01.12-.02c.03,0,.05,0,.08-.01.01,0,.03,0,.04,0,1.13-.21,2.17-.82,2.95-1.71l.06-.15-.06-.13s-.08-.05-.11-.07c-.77-.47-1.64-.73-2.52-.76"></path><path class="o" d="m96.09,29.48c-.17.07-.35.12-.55.15-.18.03-.36.03-.52.02l.11.86c.05.32.33.56.64.52.14-.02.26-.1.34-.21.09-.12.12-.26.1-.41l-.12-.92"></path><path d="m96.41,29.32c-.1.06-.21.12-.32.16l.12.92c.02.15-.02.3-.1.41-.08.12-.2.19-.34.21-.31.04-.59-.19-.64-.52l-.11-.86c-.12-.01-.24-.03-.35-.06l.04.33.05.35v.1s.04.24.04.24c0,.03.01.07.02.1.1.44.51.74.95.68.23-.03.44-.17.59-.37.11-.16.18-.35.18-.54,0-.05,0-.1,0-.16l-.03-.21v-.09s-.06-.35-.06-.35l-.05-.35"></path><path class="o" d="m96.5,25.51l-2.91.41c-.11.42-.14.91-.08,1.43.17,1.38.92,2.08,2.02,1.93.49-.07.87-.28,1.11-.61.3-.41.4-1.02.31-1.75-.07-.55-.23-1.03-.46-1.4"></path><path d="m96.88,25.45l-.38.05c.23.38.39.85.46,1.4.09.73-.01,1.33-.31,1.75-.25.34-.63.55-1.11.61-1.11.16-1.85-.54-2.02-1.93-.07-.52-.04-1.01.08-1.43l-.35.05c-.1.45-.13.95-.06,1.48.15,1.16.68,1.91,1.48,2.14.11.03.23.05.35.06.17.01.34.01.52-.02.2-.03.38-.08.55-.15.11-.05.22-.1.32-.16.19-.12.36-.28.49-.46.36-.5.5-1.21.39-2.04-.07-.52-.21-.98-.41-1.36m-2.35-1.11s0,0,0,0c0,0,0,0,0,0m.1-.03s-.02,0-.03,0c0,0,.02,0,.03,0m.09-.02s-.02,0-.03,0c.01,0,.02,0,.03,0m.27-.04s0,0,.01,0c0,0,0,0-.01,0m-.19.02s-.02,0-.03,0c0,0,.02,0,.03,0"></path><path class="t" d="m94.88,24.61c-.52.07-.98.41-1.28.94l2.78-.39c-.43-.41-.97-.62-1.5-.55"></path><path class="t" d="m93.6,25.55c.31-.53.76-.87,1.28-.94s1.06.14,1.5.55l-2.78.39m1.28-1.3s-.05,0-.08.01c0,0-.02,0-.03,0-.02,0-.03,0-.05.01-.01,0-.02,0-.03,0-.02,0-.04.01-.06.02,0,0-.02,0-.03,0-.03,0-.05.02-.08.03,0,0,0,0,0,0-.58.2-1.08.7-1.36,1.37l-.11.28.19-.03.35-.05,2.91-.41.38-.05.2-.03-.2-.27c-.51-.64-1.18-.97-1.88-.92,0,0,0,0-.01,0-.04,0-.07,0-.11.01"></path></g></g><g class="v"><g class="s"><path class="o" d="m59.66,21.27c-1.3.18-2.45.89-3.25,1.99-.8,1.11-1.15,2.49-.97,3.89.21,1.58,1.05,2.9,2.22,3.71.61-.66,1.37-1.15,2.2-1.42v-.1s-1.85.26-1.85.26l-.06-.05c-.54-.57-.89-1.37-1.02-2.31-.17-1.29.13-2.58.82-3.52.55-.75,1.29-1.22,2.1-1.33,1.9-.27,3.7,1.45,4.01,3.84.13.94-.02,1.82-.41,2.54l-.05.08-1.81.25v.09c.89.03,1.76.29,2.53.76.07-.08.13-.16.19-.24.8-1.12,1.15-2.5.97-3.9-.38-2.88-2.9-4.92-5.62-4.53"></path><path d="m60.9,32.07s.03,0,.05,0c-.02,0-.03,0-.05,0m.37-.05s-.05,0-.08.01c.03,0,.05,0,.08-.01m-.5.07s.04,0,.06,0c-.02,0-.04,0-.06,0m-.13,0s.05,0,.07,0c-.02,0-.05,0-.07,0m-.13,0s.05,0,.08,0c-.03,0-.05,0-.08,0m-.34,0c.1,0,.21,0,.32,0-.11,0-.21,0-.32,0m-.1,0s.06,0,.09,0c-.03,0-.06,0-.09,0m-.11,0s.05,0,.08,0c-.03,0-.05,0-.08,0m-.11-.01s.04,0,.06,0c-.02,0-.04,0-.06,0m-.11-.01s.03,0,.04,0c-.01,0-.03,0-.04,0m-.07-11.13c-1.39.2-2.64.95-3.5,2.13-.87,1.2-1.24,2.69-1.05,4.18.23,1.72,1.16,3.15,2.45,4l-.07-.12.06-.15s.07-.08.11-.12c-1.17-.81-2.01-2.13-2.22-3.71-.18-1.4.17-2.78.97-3.89.79-1.1,1.95-1.8,3.25-1.99,2.72-.38,5.24,1.66,5.62,4.53.18,1.4-.17,2.78-.97,3.9-.06.08-.13.17-.19.24.04.02.07.05.11.07l.07.13-.06.15c-.78.89-1.82,1.5-2.95,1.71,1.3-.24,2.45-.99,3.26-2.1.87-1.2,1.25-2.69,1.05-4.18-.39-3.06-3.07-5.2-5.95-4.8"></path><path class="t" d="m59.85,22.73c-.71.1-1.37.52-1.84,1.18-.63.86-.89,2.04-.74,3.23.11.85.41,1.55.89,2.08l1.65-.23-.04-.33c-.8-.23-1.33-.98-1.48-2.14-.07-.53-.05-1.03.06-1.48l-.19.03.11-.28c.28-.67.78-1.17,1.36-1.37,0,0,0,0,0,0,.03,0,.05-.02.08-.03,0,0,.02,0,.03,0,.02,0,.04-.01.06-.02.01,0,.02,0,.03,0,.02,0,.03,0,.05-.01,0,0,.02,0,.03,0,.03,0,.05,0,.08-.01.04,0,.07,0,.11-.01,0,0,0,0,.01,0,.7-.06,1.37.28,1.88.92l.2.27-.2.03c.2.38.34.84.41,1.36.11.83-.03,1.54-.39,2.04-.14.18-.3.34-.49.46l.05.35,1.67-.23c.31-.63.42-1.37.31-2.2-.29-2.21-1.94-3.82-3.68-3.57"></path><path class="t" d="m59.85,22.38c-.81.11-1.55.58-2.1,1.33-.68.94-.98,2.23-.82,3.52.13.94.48,1.74,1.02,2.31l.06.05,1.84-.26-.05-.35-1.65.23c-.48-.53-.78-1.23-.89-2.08-.15-1.2.12-2.38.74-3.23.47-.65,1.13-1.08,1.84-1.18,1.74-.24,3.39,1.36,3.68,3.57.11.83,0,1.57-.31,2.2l-1.67.23.05.35,1.81-.25.05-.08c.39-.72.53-1.6.41-2.54-.31-2.39-2.11-4.1-4.01-3.84"></path><path class="o" d="m59.91,29.78c-.74.25-1.42.68-1.98,1.25.95.57,2.05.8,3.13.65s2.04-.66,2.81-1.45c-.69-.41-1.46-.64-2.23-.69,0,.19-.07.38-.18.54-.15.2-.36.34-.59.37-.44.06-.84-.23-.95-.68"></path><path d="m61.61,29.19l.03.21c0,.05,0,.1,0,.16.78.04,1.55.28,2.23.69-.76.79-1.75,1.3-2.81,1.45s-2.18-.07-3.13-.65c.55-.58,1.23-1.01,1.98-1.25,0-.03-.01-.07-.02-.1l-.03-.24c-.83.27-1.58.76-2.2,1.42-.04.04-.07.08-.11.12l-.06.15.07.12h0c.65.44,1.39.71,2.15.81.01,0,.03,0,.04,0,.02,0,.05,0,.07,0,.02,0,.04,0,.06,0,.02,0,.03,0,.05,0,.03,0,.05,0,.08,0,0,0,.02,0,.03,0,.03,0,.06,0,.09,0,0,0,0,0,0,0,.11,0,.21,0,.32,0,0,0,.02,0,.02,0,.03,0,.05,0,.08,0,.02,0,.03,0,.05,0,.02,0,.05,0,.07,0,.02,0,.04,0,.06,0,.02,0,.04,0,.06,0,.03,0,.05,0,.08,0,.02,0,.03,0,.05,0,.04,0,.08,0,.12-.02s.08-.01.12-.02c.03,0,.05,0,.08-.01.01,0,.03,0,.04,0,1.13-.21,2.17-.82,2.95-1.71l.06-.15-.07-.13s-.07-.05-.11-.07c-.77-.47-1.64-.73-2.52-.76"></path><path class="o" d="m61.18,28.56c-.17.07-.35.12-.55.15-.18.03-.36.03-.52.02l.11.86c.04.32.33.56.64.52.14-.02.26-.1.34-.21.09-.12.12-.26.1-.41l-.12-.92"></path><path d="m61.5,28.4c-.1.06-.21.12-.32.16l.12.92c.02.15-.02.3-.1.41-.08.12-.2.19-.34.21-.31.04-.6-.19-.64-.52l-.11-.86c-.12-.01-.24-.03-.35-.06l.04.33.05.35v.1s.04.24.04.24c0,.03.01.07.02.1.1.44.51.74.95.68.23-.03.44-.17.59-.37.11-.16.18-.35.18-.54,0-.05,0-.1,0-.16l-.03-.21v-.09s-.06-.35-.06-.35l-.05-.35"></path><path class="o" d="m61.6,24.59l-2.91.41c-.11.42-.14.91-.07,1.43.17,1.38.92,2.08,2.02,1.93.49-.07.87-.28,1.11-.61.3-.41.4-1.02.31-1.75-.07-.55-.23-1.03-.46-1.4"></path><path d="m61.98,24.54l-.38.05c.23.38.39.85.46,1.4.09.73-.01,1.33-.31,1.75-.25.34-.63.55-1.11.61-1.11.16-1.85-.54-2.02-1.93-.07-.52-.04-1.01.07-1.43l-.34.05c-.1.45-.13.95-.06,1.48.15,1.16.68,1.91,1.48,2.14.11.03.23.05.35.06.17.01.34.01.52-.02.2-.03.38-.08.55-.15.11-.05.22-.1.32-.16.19-.12.36-.28.49-.46.36-.5.5-1.21.39-2.04-.07-.52-.21-.98-.41-1.36m-2.35-1.11s0,0,0,0c0,0,0,0,0,0m.1-.03s-.02,0-.03,0c0,0,.02,0,.03,0m.09-.02s-.02,0-.03,0c.01,0,.02,0,.03,0m.27-.04s0,0,.01,0c0,0,0,0-.01,0m-.19.02s-.02,0-.03,0c0,0,.02,0,.03,0"></path><path class="t" d="m59.98,23.69c-.52.07-.98.41-1.28.94l2.78-.39c-.43-.41-.97-.62-1.5-.55"></path><path class="t" d="m58.7,24.63c.31-.53.76-.87,1.28-.94s1.06.14,1.5.55l-2.78.39m1.28-1.3s-.05,0-.08.01c0,0-.02,0-.03,0-.02,0-.03,0-.05.01-.01,0-.02,0-.03,0-.02,0-.04.01-.06.02,0,0-.02,0-.03,0-.03,0-.05.02-.08.03,0,0,0,0,0,0-.58.2-1.08.7-1.36,1.37l-.11.28.19-.03.34-.05,2.91-.41.38-.05.2-.03-.2-.27c-.51-.64-1.18-.97-1.88-.92,0,0,0,0-.01,0-.04,0-.07,0-.11.01"></path></g></g><polygon class="t" points="25.99 51.21 14.93 44.45 15.13 44.09 26.25 50.91 25.99 51.21"></polygon><path class="ah" d="m40.94,70.39h-20.72s0,11.79,0,11.79c.66.24,1.25.48,1.4.54.73.38,1.65.53,2.87.9,0,0-.12.57-.42,1.47-.12-.19-.19-.3-.19-.3-.86.32-2.24,2.01-3.66,4.31v24.82c1.57,1.97,3.42,3.8,5.46,5.18.21.14.42.27.63.4-2.6,2.78-4.79,5.3-6.09,7.64v7.78c.09.12.19.25.3.37h44.36c-.15-.72-.32-1.46-.5-2.21,5.5-.75,13.14-2.58,17.7-7.28,5.9-6.09,12.74-18.66,12.74-18.66-.11-3.11-.79-5.85-1.63-8.12,1.15-1.67,2.2-3.08,2.86-3.71,2.23-2.15,6.37-.38,6.95-3.05.31-1.43,1.45-1.68,1.65-3.29.12-.95-.39-1.18-.12-2.31.26-1.13-2.09-1.64-2.09-1.64,0,0,4.15-1.2,5.14-1.38v-1.7s-.02,0-.03,0c-4.81-1.61-9.63,2.01-12.34,2.26-2.71.25-4.63-1.54-7.13-2.3-.07-.02-.13-.03-.19-.05l19.7.04v-11.48s-23.91,0-23.91,0v7.04c-.02,2.42,1.94,4.38,4.36,4.39h-2.34c-.65.33-.5,1.02,1.12,1.7,3.41,1.42,2.68,4.1,3.47,6.26.31.85.09,1.84-.44,2.89-.34-.46-.55-.7-.55-.7,0,0-11.8,8.47-16.02,16.39,0,0-8.65,1.36-14.69,3.84-.09-.08-.19-.16-.28-.23.98-.39,2.12-.77,3.48-1.09,0,0-2.15-3.33-5.12-5.49.41-.2.78-.46,1.03-.89,1-1.65-.24-2.36-.24-3.8s-.79-2.69-.79-2.69c0,0,1.49-1.48.1-1.92-1.06-.34-3.13-1.82-3.13-1.82-.49-1.36-1.03-2.49-1.54-3.41.47-1.2.2-2.41-2.21-3.12,0,0,2.97-1.02,3.73,3.63,0,0,2.2-7.37-6.09-6.14,0,0-7.83-5.41-12.98,4.42,0,0-1.73-.13-3.05,1.14,0-.21,0-.43,0-.64-.6-.02-1.16-.12-1.7-.29-.09-1.98.04-4.64,1.14-5.98.84-1.02,1.78-2.73,1.54-5.13l-4.07.7s0-.02-.02-.04l9.09-3.22c2.38-.4,3.99-2.66,3.59-5.05l-.13-.76Zm-10.58,31.29c.14-.22.28-.76.42-1.52.2.86.39,1.67.56,2.42-.04.01-.08.03-.12.04-.54-.59-.86-.94-.86-.94Z"></path><path class="o" d="m14.16,51.34l19.55-3.29c1.75-.3,3.4.88,3.7,2.63l3.11,18.44c.29,1.75-.89,3.4-2.63,3.7l-19.55,3.29c-1.75.3-3.4-.88-3.7-2.63l-3.11-18.44c-.29-1.75.88-3.4,2.63-3.7Z"></path><path d="m11.38,55.06l3.11,18.44c.27,1.62,1.67,2.8,3.31,2.8.19,0,.38-.02.56-.05l19.55-3.29c1.82-.31,3.06-2.05,2.76-3.87l-3.11-18.44c-.28-1.62-1.67-2.8-3.31-2.8-.19,0-.38.02-.56.05l-19.55,3.29c-1.83.31-3.06,2.05-2.75,3.87Zm2.8-3.57l19.55-3.29c.17-.03.34-.04.51-.04,1.49,0,2.76,1.07,3.01,2.55l3.11,18.44c.28,1.66-.85,3.24-2.51,3.52l-19.55,3.29c-.17.03-.34.04-.51.04-1.49,0-2.76-1.07-3.01-2.55l-3.11-18.44c-.28-1.66.84-3.24,2.5-3.52Z"></path><path class="t" d="m14.09,51.35l19.67-3.32c1.71-.29,3.33.87,3.62,2.58l-25.87,4.36c-.29-1.71.87-3.33,2.58-3.62Z"></path><path class="t" d="m11.93,52.53c-.51.72-.71,1.59-.56,2.46l.03.15,26.17-4.41-.02-.15c-.27-1.59-1.63-2.75-3.25-2.75-.18,0-.37.02-.55.05l-19.67,3.32c-.87.15-1.63.62-2.14,1.34Zm.25.18c.46-.65,1.15-1.08,1.94-1.21l19.67-3.32c.17-.03.33-.04.5-.04,1.41,0,2.61.98,2.92,2.34l-25.56,4.31c-.09-.74.1-1.47.53-2.08Z"></path><path class="o" d="m13.33,52.64l1.19.71.4-.57c.05-.07.14-.08.21-.04.07.05.08.14.04.21l-.49.68s-.08.06-.12.06c-.03,0-.05,0-.08-.02l-1.31-.78c-.07-.04-.1-.14-.05-.21.04-.07.14-.1.21-.05Z"></path><path class="o" d="m34.82,48.8c.05-.07.15-.08.21-.02.07.05.08.15.02.21l-1.36,1.71s-.07.06-.12.06c-.03,0-.07-.01-.1-.03-.07-.05-.08-.15-.02-.21l1.36-1.71Z"></path><path class="o" d="m33.46,49.05l1.75,1.15c.07.05.09.14.04.21-.03.04-.08.07-.13.07-.03,0-.06,0-.08-.02l-1.76-1.15c-.07-.05-.09-.14-.04-.21.05-.07.14-.09.21-.04Z"></path><path class="o" d="m24.4,54.91c4.86-.87,9.5,2.37,10.37,7.23.87,4.86-2.37,9.5-7.23,10.37-4.86.87-9.5-2.37-10.37-7.23-.87-4.86,2.37-9.5,7.23-10.37Z"></path><path d="m17.02,65.3c.78,4.34,4.53,7.5,8.94,7.5.54,0,1.08-.05,1.61-.14,2.39-.43,4.47-1.76,5.86-3.75,1.39-1.99,1.92-4.41,1.49-6.8-.77-4.34-4.53-7.5-8.94-7.5-.54,0-1.08.05-1.61.14-4.94.88-8.23,5.61-7.35,10.55Zm7.41-10.25c.51-.09,1.04-.14,1.55-.14,4.26,0,7.89,3.05,8.64,7.24.41,2.31-.1,4.64-1.44,6.57-1.34,1.92-3.35,3.21-5.66,3.62-.51.09-1.04.14-1.55.14-4.26,0-7.89-3.05-8.64-7.24-.85-4.77,2.34-9.34,7.11-10.19Z"></path><path class="t" d="m23.93,59c.16-1.87,5.28-3.71,5.34.12.02,1.58.98,3.15.46,3.74l-7.52,1.34c-.3.05-1.02-1.04-.87-2.54.28-2.82,2.59-2.67,2.59-2.67Z"></path><path class="t" d="m21.19,61.65c-.11,1.12.24,2.08.62,2.49.13.14.26.22.38.22h.05s7.58-1.36,7.58-1.36l.04-.04c.35-.4.17-1.06-.06-1.91-.16-.6-.35-1.27-.36-1.94-.02-1.52-.84-2.39-2.23-2.39s-3.16.96-3.39,2.12c-.53.02-2.36.27-2.61,2.8Zm.3.03c.24-2.41,2.02-2.53,2.38-2.53h.2s.01-.14.01-.14c.08-.96,1.68-1.98,3.1-1.98.71,0,1.9.27,1.93,2.09.01.71.2,1.4.37,2.02.19.69.35,1.29.16,1.58l-7.46,1.33s-.08-.03-.17-.14c-.32-.38-.61-1.24-.52-2.23Z"></path><path class="o" d="m26.83,68.49c2.12-.38,4.21.03,5.96,1.01-1.3,1.52-3.12,2.63-5.24,3.01-2.12.38-4.21-.03-5.96-1.01,1.3-1.53,3.12-2.63,5.24-3.01Z"></path><path d="m21.47,71.4s-.04.08-.03.13c0,.04.04.08.08.11,1.36.76,2.9,1.17,4.46,1.17.54,0,1.08-.05,1.61-.14,2.07-.37,3.96-1.46,5.33-3.06.03-.03.04-.08.03-.13,0-.05-.04-.08-.08-.11-1.83-1.03-3.99-1.4-6.06-1.03-2.07.37-3.96,1.45-5.33,3.06Zm.36.06c1.31-1.47,3.09-2.47,5.03-2.81,1.94-.35,3.96-.02,5.69.9-1.31,1.47-3.09,2.47-5.03,2.81-1.94.35-3.96.02-5.69-.9Z"></path><path class="o" d="m26.54,65.68h.33c.59,0,1.07.48,1.07,1.07v2.12c0,.59-.48,1.07-1.07,1.07h-.33c-.59,0-1.07-.48-1.07-1.07v-2.12c0-.59.48-1.07,1.07-1.07Z" transform="translate(-11.54 5.77) rotate(-10.16)"></path><path d="m25.15,67.02l.37,2.09c.1.59.61,1.01,1.21,1.01.07,0,.14,0,.22-.02l.33-.06c.32-.06.6-.24.79-.51.19-.27.26-.59.2-.92l-.37-2.09c-.12-.66-.75-1.11-1.42-.99l-.32.06c-.67.12-1.11.76-.99,1.42Zm1.05-1.12l.32-.06c.05,0,.11-.01.16-.01.45,0,.83.32.91.76l.37,2.09c.04.24-.01.49-.15.69-.14.2-.35.34-.59.38l-.33.06c-.51.09-.98-.25-1.07-.74l-.37-2.09c-.09-.5.24-.98.74-1.07Z"></path><path class="o" d="m25.11,58.87c2.03-.36,4.04,1.31,4.47,3.74.43,2.43-.97,4.09-3.01,4.46s-3.93-.71-4.36-3.14c-.43-2.43.86-4.69,2.9-5.06Z"></path><path d="m22.6,60.54c-.57.99-.76,2.2-.54,3.41.37,2.06,1.8,3.34,3.75,3.34.26,0,.53-.02.79-.07,2.29-.41,3.55-2.27,3.13-4.63-.4-2.23-2.15-3.92-4.06-3.92-.2,0-.39.02-.58.05-1.03.18-1.91.83-2.48,1.83Zm.26.15c.52-.92,1.33-1.51,2.27-1.68.17-.03.35-.05.53-.05,1.77,0,3.39,1.58,3.76,3.67.39,2.18-.77,3.9-2.88,4.28-.25.04-.5.07-.74.07-1.79,0-3.11-1.18-3.45-3.08-.2-1.14-.02-2.28.51-3.2Z"></path><path class="t" d="m28.81,59.85c-2.07,1.71-4.3-.78-4.3-.78.7-1.58,6.37-.93,4.3.78Z"></path><path class="t" d="m24.37,59.01l-.04.09.07.07c.05.06,1.3,1.43,2.83,1.43.6,0,1.17-.21,1.68-.63.54-.44.55-.81.47-1.03-.23-.63-1.42-.92-2.49-.92-1,0-2.19.26-2.51.99Zm.33.04c.28-.44,1.12-.72,2.19-.72s2.06.31,2.21.71c.09.24-.16.51-.38.69-.45.37-.95.56-1.48.56-1.2,0-2.25-.97-2.53-1.25Z"></path><path class="o" d="m87.43,54.21l17.92.04c1.6,0,2.9,1.3,2.9,2.9l-.03,16.91c0,1.6-1.31,2.9-2.91,2.89l-17.92-.04c-1.6,0-2.9-1.3-2.9-2.9l.04-16.91c0-1.6,1.3-2.9,2.9-2.9Z"></path><path d="m84.39,57.11l-.04,16.91c0,.81.31,1.58.89,2.15.57.57,1.34.89,2.15.89l17.92.04h0c1.67,0,3.03-1.36,3.04-3.03l.03-16.91c0-1.67-1.36-3.04-3.03-3.04l-17.92-.04c-1.68,0-3.04,1.36-3.04,3.03Zm.24,16.91l.04-16.91c0-1.52,1.24-2.76,2.76-2.76l17.93.04c1.52,0,2.76,1.24,2.76,2.77l-.03,16.91c0,1.52-1.25,2.76-2.77,2.76v.14-.14s-17.93-.04-17.93-.04c-.74,0-1.43-.29-1.95-.81-.52-.52-.81-1.22-.81-1.95Z"></path><path class="t" d="m87.37,54.21l18.04.04c1.57,0,2.84,1.28,2.84,2.85l-23.72-.05c0-1.57,1.28-2.84,2.85-2.84Z"></path><path class="t" d="m84.39,57.05v.14s24,.05,24,.05v-.14c0-1.64-1.33-2.98-2.97-2.99l-18.04-.04c-1.65,0-2.98,1.33-2.99,2.97Zm.28-.14c.08-1.42,1.26-2.56,2.7-2.56l18.05.04c1.44,0,2.63,1.14,2.7,2.57l-23.44-.05Z"></path><path class="o" d="m86.48,55.33l.89.75.42-.41c.05-.05.13-.05.18,0,.05.05.05.13,0,.18l-.5.5s-.06.04-.09.04c-.03,0-.06,0-.08-.03l-.98-.83c-.05-.05-.06-.13-.01-.18.05-.05.13-.06.18-.01Z"></path><path class="o" d="m106.15,55.21s.12-.04.16,0c.04.05.04.12,0,.16l-1.19,1.06s-.05.03-.07.03c-.03,0-.06-.01-.08-.04-.04-.05-.04-.12,0-.16l1.19-1.06Z"></path><path class="o" d="m105.15,55.22l1.12,1.04s.05.11,0,.16c-.02.02-.05.04-.08.04-.03,0-.05,0-.08-.03l-1.12-1.04s-.05-.11,0-.16c.04-.04.11-.05.16,0Z"></path><circle class="o" cx="96.37" cy="67.08" r="8.04"></circle><path d="m88.2,67.08c0,4.51,3.67,8.18,8.17,8.18s8.17-3.67,8.17-8.18-3.67-8.18-8.17-8.18-8.17,3.67-8.17,8.18Zm.28,0c0-4.36,3.54-7.9,7.9-7.9s7.9,3.54,7.9,7.9-3.54,7.9-7.9,7.9c-4.36,0-7.9-3.54-7.9-7.9Z"></path><path class="t" d="m96.37,61.23c2.88,0,5.21,2.79,5.21,6.22,0,1.42-.4,2.58-1.07,3.46h-8.27c-.67-.88-1.07-2.04-1.07-3.46,0-3.44,2.33-6.22,5.21-6.22Z"></path><path class="t" d="m91.02,67.45c0,1.37.38,2.6,1.1,3.54l.04.05h8.41s.04-.05.04-.05c.72-.94,1.1-2.17,1.1-3.54,0-3.51-2.4-6.36-5.35-6.36s-5.35,2.85-5.35,6.36Zm.28,0c0-3.36,2.28-6.09,5.07-6.09s5.07,2.73,5.07,6.09c0,1.31-.34,2.42-1.01,3.32h-8.14c-.67-.9-1.01-2.02-1.01-3.32Z"></path><path class="o" d="m101.48,73.29c-1.39,1.14-3.17,1.83-5.11,1.83s-3.72-.69-5.12-1.83c1.39-1.14,3.18-1.83,5.12-1.83s3.72.69,5.11,1.83Z"></path><path d="m91.17,73.18s-.05.07-.05.11c0,.04.02.08.05.11,1.46,1.2,3.31,1.86,5.2,1.86s3.74-.66,5.2-1.87c.03-.03.05-.07.05-.11,0-.04-.02-.08-.05-.11-1.46-1.2-3.31-1.87-5.2-1.87s-3.74.66-5.2,1.86Zm.31.11c1.39-1.09,3.12-1.7,4.9-1.7s3.5.6,4.89,1.7c-1.39,1.09-3.12,1.7-4.89,1.7s-3.5-.6-4.9-1.7Z"></path><rect class="o" x="95.26" y="68.92" width="2.23" height="3.84" rx=".97" ry=".97"></rect><path d="m95.12,69.89v1.9c0,.61.5,1.11,1.11,1.11h.29c.61,0,1.11-.5,1.11-1.11v-1.9c0-.61-.5-1.11-1.11-1.11h-.29c-.61,0-1.11.5-1.11,1.11Zm.28,0c0-.46.37-.83.83-.83h.29c.46,0,.83.37.83.83v1.9c0,.46-.37.83-.83.83h-.29c-.46,0-.83-.37-.83-.83v-1.9Z"></path><path class="o" d="m96.37,62.66c1.86,0,2.99,1.8,2.99,4.02s-1.13,3.47-2.99,3.47-2.99-1.25-2.99-3.47,1.13-4.02,2.99-4.02Z"></path><path d="m93.25,66.68c0,2.26,1.17,3.61,3.12,3.61s3.12-1.35,3.12-3.61c0-2.45-1.28-4.16-3.12-4.16s-3.12,1.71-3.12,4.16Zm.28,0c0-2.28,1.17-3.88,2.85-3.88s2.85,1.6,2.85,3.88c0,2.12-1.04,3.33-2.85,3.33s-2.85-1.21-2.85-3.33Z"></path><path class="t" d="m96.37,62.66c1.11,0,2.09.65,2.71,1.64h-5.41c.61-.99,1.59-1.64,2.71-1.64Z"></path><path class="t" d="m93.55,64.23l-.13.21h5.91s-.13-.21-.13-.21c-.66-1.07-1.71-1.7-2.82-1.7s-2.16.64-2.82,1.7Zm.37-.07c.62-.87,1.5-1.36,2.45-1.36s1.83.49,2.45,1.36h-4.9Z"></path><path class="q" d="m49.28,82.95s2.12,2.03,3.75,6.53c0,0,2.07,1.48,3.13,1.82,1.39.44-.1,1.92-.1,1.92,0,0,.79,1.24.79,2.69s1.25,2.15.24,3.8c-1.15,1.89-4.46.59-4.46,4.77,0,0-8.24,1.08-13.26.34-5.03-.74-.12-21.87,9.91-21.87Z"></path><path class="t" d="m37.22,99.45c-.24,3.31.54,5.34,2.13,5.58,1.17.17,2.62.26,4.29.26,4.38,0,8.98-.6,9.03-.6l.18-.02v-.18c0-2.48,1.17-2.9,2.42-3.34.76-.27,1.54-.55,2.01-1.32.69-1.13.39-1.88.11-2.6-.16-.4-.32-.81-.32-1.3,0-1.22-.53-2.28-.74-2.66.24-.27.76-.93.62-1.49-.07-.31-.31-.53-.72-.66-.93-.3-2.69-1.52-3.02-1.75-1.62-4.45-3.69-6.46-3.78-6.54l-.06-.06h-.08c-6.99,0-11.57,9.88-12.07,16.71Zm.42.03c.49-6.78,5.13-16.24,11.56-16.32.35.36,2.2,2.41,3.64,6.39l.02.06.05.04c.08.06,2.1,1.5,3.18,1.85.38.12.42.3.44.36.1.4-.43,1.03-.62,1.22l-.12.12.09.14s.76,1.21.76,2.57c0,.57.18,1.02.35,1.46.27.69.5,1.28-.08,2.23-.39.64-1.07.89-1.8,1.15-1.23.44-2.63.94-2.69,3.55-.89.11-4.93.58-8.79.58-1.65,0-3.08-.09-4.23-.25-1.33-.19-1.99-2.11-1.77-5.13Z"></path><path class="t" d="m50.88,88.92l.14.39s-.48.26-.28,2.12l-.41.05c-.24-2.19.42-2.51.55-2.55Z"></path><path class="t" d="m48.05,95.09l-.2.36c-.68-.39-1.42-.18-1.84.2-.49.43-.62,1.06-.37,1.68.59,1.42,2.38,1.04,2.45,1.02l.09.41s-.29.06-.67.06c-.71,0-1.79-.2-2.26-1.33-.33-.78-.14-1.61.47-2.16.65-.57,1.58-.67,2.32-.25Z"></path><path class="t" d="m46.28,95.51c-.03.39.05.69.24.88.32.31.85.27.85.27l.04.41s-.05,0-.11,0c-.22,0-.72-.04-1.07-.39-.29-.28-.41-.69-.37-1.21l.42.03Z"></path><path class="r" d="m19.71,75.49c2.14,1.04,1.36,2.45,1.36,2.45,0,0-2.83-1.15-3.52-1.15-1.46,0,.02-2.34,2.16-1.29Z"></path><path class="t" d="m16.75,76.36c0,.19.08.35.22.46.14.11.33.17.57.17.53,0,2.67.82,3.44,1.14l.17.07.09-.16s.3-.55.09-1.22c-.19-.6-.71-1.11-1.54-1.52-.39-.19-.79-.29-1.18-.29-1.05,0-1.86.73-1.86,1.35Zm.42,0c0-.33.55-.93,1.44-.93.33,0,.67.08,1,.25.72.35,1.17.78,1.32,1.26.1.3.06.56.01.73-.69-.27-2.78-1.09-3.4-1.09-.14,0-.25-.03-.32-.08-.03-.02-.06-.06-.06-.14Z"></path><path class="m" d="m20.04,71.77c-.64-3.44.43-3.73,1.27-2.72.86,1.04.8,2.56.8,2.56.41.54.83,2.67.83,2.67,1.08-.07,2.28.55,2.28.55,0,0-3.28-5.3-2.69-6.2.89-1.35,2.11.39,2.5,1.01.77,1.22.98,2.25.98,2.25,1.08,1.01,1.8,2.74,1.8,2.74l4.07-.7c.24,2.41-.69,4.11-1.54,5.13-1.88,2.27-.91,8.43-.91,8.43-3.64,1.32-7.5-3.77-7.5-3.77,1.51-2.67,1.98-4.94,1.98-4.94-2.24-.68-3.47-.59-4.4-2.65-.3-.66-1.3-3.93-.95-5.16.45-1.59,1.5.76,1.5.76Z"></path><path class="t" d="m18.34,70.95c-.37,1.32.67,4.63.97,5.3.8,1.78,1.83,2.05,3.4,2.45.29.08.6.16.94.26-.15.59-.68,2.51-1.91,4.69l-.07.12.08.11c.13.17,3.13,4.07,6.41,4.07.46,0,.9-.08,1.33-.23l.16-.06-.03-.17c0-.06-.93-6.09.87-8.27.86-1.04,1.83-2.8,1.58-5.29l-.02-.22-4.13.71c-.2-.45-.83-1.75-1.73-2.62-.06-.25-.31-1.18-.99-2.26-.46-.73-1.17-1.61-1.92-1.61-.36,0-.68.2-.94.59-.55.83,1.44,4.34,2.35,5.86-.42-.15-1.01-.32-1.59-.32h0c-.11-.53-.44-1.98-.79-2.52,0-.33-.04-1.67-.85-2.63-.52-.63-1.14-.75-1.49-.32-.3.36-.4,1.09-.3,2.14-.21-.27-.46-.48-.71-.48-.29,0-.5.24-.63.7Zm.4.11c.09-.32.19-.4.23-.4.2,0,.63.63.88,1.19l.71,1.6-.32-1.72c-.38-2.08-.09-2.7.05-2.88.2-.24.52-.07.85.32.8.96.75,2.41.75,2.42v.07s.04.06.04.06c.31.41.68,2.01.79,2.59l.04.18h.18c1.01-.07,2.16.51,2.17.52l.67.35-.4-.64c-1.58-2.55-3.01-5.48-2.69-5.97.18-.27.37-.41.59-.41.42,0,1.01.53,1.56,1.41.74,1.17.95,2.17.95,2.18v.06s.06.05.06.05c1.03.97,1.74,2.66,1.75,2.67l.06.15,4.01-.69c.16,2.22-.72,3.81-1.51,4.76-1.76,2.13-1.13,7.38-.98,8.42-.33.1-.67.15-1.03.15-2.79,0-5.49-3.17-5.99-3.8,1.45-2.62,1.91-4.78,1.93-4.87l.04-.19-.18-.05c-.41-.13-.79-.22-1.14-.32-1.55-.41-2.4-.63-3.12-2.22-.31-.69-1.26-3.87-.94-5.01Z"></path><path d="m19.97,71.48c.12-.02.22.06.24.17.13.85.54,3.17.82,3.66.18.31,1.2.8,1.8,1.04.11.04.16.16.12.27-.03.08-.11.13-.19.13-.03,0-.05,0-.08-.01-.28-.11-1.71-.7-2.01-1.22-.37-.64-.82-3.48-.87-3.8-.02-.11.06-.22.17-.24Z"></path><path class="y" d="m23.28,79.99s3.06,5.24,7.62,5.37c0,5.33-.61,10.67-1.14,11.52,0,0,10.26,11.17,15.99,17.28,0,0-6.76,9.48-20.67.12-6.2-4.18-10.67-12.54-10.67-16.28,0-5.51,6.46-17.14,8.87-18.02Z"></path><path class="t" d="m14.2,98c0,3.67,4.29,12.1,10.76,16.46,4.1,2.76,8,4.16,11.57,4.16,6.21,0,9.35-4.29,9.38-4.34.06-.08.05-.19-.02-.26-5.36-5.73-14.82-16.01-15.89-17.18.57-1.29,1.1-6.69,1.1-11.49,0-.11-.09-.2-.2-.21-4.39-.13-7.41-5.22-7.45-5.27-.05-.09-.16-.13-.25-.09-2.43.89-9.01,12.55-9.01,18.21Zm.42,0c0-5.27,6.17-16.48,8.58-17.75.56.89,3.38,5.06,7.49,5.31-.01,5.27-.61,10.42-1.11,11.21-.05.08-.04.18.02.25.1.11,10.18,11.08,15.87,17.16-.58.71-3.56,4.03-8.94,4.03-3.49,0-7.31-1.38-11.34-4.09-6.14-4.13-10.58-12.49-10.58-16.11Z"></path><path class="y" d="m26.65,113.22c-2.84-2.99-2.31-15.89,6.79-15.89,0,0,2.69,3.74,3.5,4.01,6.32,2.07,11.25.77,14.7,1.1,4.25.41,3.14,3.02,3.14,3.02,0,0,7.92,2.56,7.56,13.2-.19,5.55,2.46,11.76,2.55,16.43H24.1c-.02-1.41.03-4.33.84-5.27,1.08-1.26,1.71-16.6,1.71-16.6Z"></path><path class="t" d="m24.78,129.68c-.84.98-.92,3.81-.89,5.41,0,.11.1.2.21.2h40.81c.06,0,.11-.02.15-.06.04-.04.06-.09.06-.15-.04-2.12-.6-4.53-1.19-7.08-.72-3.1-1.46-6.31-1.36-9.33.33-9.73-6.28-12.84-7.51-13.33.09-.33.19-.99-.2-1.64-.49-.82-1.56-1.31-3.18-1.46-.97-.09-2.28-.05-3.7.01-.95.04-1.92.09-2.98.09-1.86,0-4.71-.12-7.98-1.2-.55-.18-2.38-2.51-3.4-3.93-.04-.05-.1-.09-.17-.09-3.39,0-6.03,1.82-7.45,5.12-1.74,4.05-1.19,9.22.45,11.06-.26,6.14-.9,15.5-1.66,16.38Zm-.47,5.2c-.03-2.52.26-4.31.79-4.93,1.1-1.28,1.7-15.15,1.76-16.72,0-.06-.02-.11-.06-.15-1.6-1.68-2.13-6.71-.43-10.67.95-2.2,2.92-4.82,6.96-4.87.48.66,2.73,3.73,3.55,4,3.33,1.09,6.22,1.22,8.11,1.22,1.07,0,2.05-.04,3-.09,1.4-.06,2.69-.11,3.64-.02,1.48.14,2.45.57,2.86,1.26.42.7.11,1.47.11,1.47-.02.05-.02.12,0,.17.02.05.07.09.13.11.08.03,7.77,2.64,7.42,13-.1,3.08.65,6.31,1.37,9.44.57,2.44,1.1,4.76,1.18,6.78H24.31Z"></path><path class="ah" d="m26.62,101.44c2.47,3.13,2.27,4.82,6.23,5.18,3.88.36,16.03.08,16.17.06-.75.55-6.05,4.6-7.55,7.15-2.72,4.46-5.54,10.41-15.37,8.59l.56-9.2c-1.79-1.89-2.24-7.73-.03-11.78Z"></path><path class="w" d="m37.64,114.42c4.25-1.55,6.93-3.89,9.08-5.77,1.87-1.63,3.22-2.81,4.73-2.62l-.05.41c-1.32-.17-2.61.96-4.4,2.52-2.06,1.8-4.89,4.27-9.21,5.85-2.02.74-3.71,1.02-5.09,1.02-4.14,0-5.64-2.48-5.66-2.51l.36-.21s2.52,4.13,10.25,1.31Z"></path><path class="ai" d="m89.68,84.97c-.79-2.16-.06-4.84-3.47-6.26-2.79-1.16-1.24-2.39,1.26-1.63,2.5.76,4.42,2.55,7.13,2.3,2.71-.25,9.21-2.66,12.34-2.26,2.11.27,1.49,1.45.03,1.71-.99.17-5.14,1.38-5.14,1.38,0,0,2.36.52,2.09,1.64-.26,1.13.24,1.36.12,2.31-.2,1.6-1.34,1.86-1.65,3.29-.58,2.67-4.72.9-6.95,3.05-2.23,2.15-9.03,13.31-9.03,13.31l-6.12-7.03s10.89-7.68,9.38-11.8Z"></path><path class="t" d="m80.18,96.6l-.19.13,6.46,7.42.15-.24c.07-.11,6.81-11.16,9-13.27.98-.94,2.33-1.09,3.65-1.24,1.55-.17,3.02-.33,3.36-1.92.13-.62.44-1,.76-1.4.38-.49.78-.99.9-1.9.06-.47-.02-.77-.1-1.07-.08-.33-.16-.65-.03-1.22.06-.26.02-.51-.13-.74-.29-.45-.92-.76-1.42-.94,1.22-.35,3.71-1.05,4.44-1.18.88-.15,1.52-.64,1.5-1.15,0-.29-.22-.79-1.54-.96-.24-.03-.51-.05-.8-.05-2,0-4.82.73-7.32,1.37-1.68.43-3.26.84-4.27.94-1.71.16-3.07-.51-4.54-1.23-.8-.39-1.62-.79-2.51-1.06-.52-.16-1.04-.24-1.5-.24-.84,0-1.41.28-1.5.72-.06.3.07.9,1.6,1.54,2.39.99,2.65,2.59,2.93,4.28.1.62.21,1.26.43,1.86,1.44,3.93-9.2,11.48-9.31,11.56Zm.43.21c1.5-1.08,10.72-7.94,9.27-11.91-.21-.56-.3-1.16-.41-1.79-.29-1.73-.58-3.51-3.18-4.59-1.14-.47-1.39-.9-1.35-1.07.04-.19.43-.39,1.09-.39.42,0,.9.08,1.38.22.86.26,1.67.66,2.45,1.04,1.3.64,2.65,1.29,4.22,1.29h0c.18,0,.36,0,.54-.03,1.04-.1,2.64-.51,4.33-.95,2.47-.64,5.27-1.36,7.22-1.36.27,0,.52.01.75.04.86.11,1.18.37,1.18.56,0,.26-.46.61-1.16.73-.99.17-5,1.33-5.17,1.38l-.79.23.8.18c.4.09,1.52.44,1.86.97.09.14.11.28.08.43-.16.67-.06,1.07.03,1.42.07.27.13.53.08.91-.1.8-.45,1.23-.81,1.7-.34.42-.68.86-.84,1.58-.28,1.29-1.48,1.42-3,1.59-1.32.15-2.81.31-3.89,1.35-2.07,2-7.88,11.42-8.92,13.11l-5.78-6.65Z"></path><path class="t" d="m52.04,90.58c.14.23.11.5-.06.6-.17.11-.43.01-.57-.21-.14-.23-.11-.5.06-.6.17-.11.43-.01.57.21Z"></path><path class="t" d="m51.36,90.19c-.27.17-.33.57-.13.89.14.22.36.36.58.36.1,0,.19-.03.27-.08.14-.09.23-.24.25-.41.02-.16-.03-.33-.12-.48-.2-.31-.59-.45-.86-.28Zm.22.35s.03-.01.05-.01c.07,0,.16.05.23.16.04.07.06.15.06.21,0,.03-.01.08-.05.1-.06.04-.19,0-.28-.15-.08-.13-.07-.28,0-.32Z"></path><path class="y" d="m72.68,103.55c4.22-7.92,16.02-16.39,16.02-16.39,0,0,5.19,6.01,5.52,15.17,0,0-6.83,12.57-12.74,18.66-5.9,6.09-16.98,7.36-21.89,7.71l-6.52-18.28c3.8-4.38,19.6-6.86,19.6-6.86Z"></path><path class="t" d="m72.54,103.36c4.24-7.85,15.91-16.29,16.03-16.37.09-.06.21-.05.28.03.05.06,5.24,6.17,5.57,15.3,0,.04,0,.07-.03.11-.07.13-6.91,12.66-12.77,18.7-5.35,5.52-14.93,7.27-22.02,7.77l-.03-.42c7.02-.49,16.49-2.22,21.75-7.64,5.63-5.81,12.2-17.69,12.68-18.56-.32-8.17-4.57-13.86-5.35-14.84-1.42,1.04-11.91,8.91-15.8,16.2-.03.06-.09.1-.15.11-.16.02-15.77,2.52-19.48,6.79l-.31-.27c3.69-4.25,18.14-6.68,19.63-6.92Z"></path><path class="t" d="m29.84,93.88c-2.12-9.49,4.1-9.02,4.1-9.02,5.15-9.83,12.98-4.42,12.98-4.42,8.29-1.23,6.09,6.14,6.09,6.14-.77-4.66-3.73-3.63-3.73-3.63,4.79,1.41,1.12,4.81-.01,6.15-1.39,1.63-.52,3.11-1.17,4.83-.31-.1-.66-.16-1.05-.16-4.07,0-4.06,6.31,0,6.31.9,0,1.61-.31,2.11-.8,5.89-2.72,12.03,6.8,12.03,6.8-7.75,1.85-8.83,5.3-8.83,5.3,7.05,13.11,4,20.27-9.53,19-13.53-1.27-11.7,7.89-20.02,2.54-8.32-5.36-3.81-11.14,3.52-18.89,7.33-7.75,5.82-9.75,3.51-20.14Z"></path><path class="t" d="m26.19,113.88c-4.67,4.94-8.5,9.35-8.01,13.34.26,2.15,1.74,4.07,4.53,5.86,1.83,1.18,3.28,1.73,4.55,1.73h0c1.46,0,2.56-.71,3.85-1.54,1.95-1.25,4.37-2.81,9.24-2.81.78,0,1.61.04,2.47.12,6.38.6,10.59-.66,12.41-3.71,1.99-3.32,1.1-8.54-2.63-15.51.22-.51,1.78-3.44,8.65-5.09l.29-.07-.16-.25c-.19-.3-4.82-7.38-10-7.38-.79,0-1.57.17-2.3.51l-.06.04c-.5.48-1.18.74-1.96.74-.88,0-1.61-.32-2.13-.91-.46-.53-.71-1.26-.71-2.03,0-1.42.89-2.94,2.84-2.94.35,0,.68.05.99.15l.19.06.07-.19c.27-.73.29-1.4.31-2.05.02-.93.05-1.8.83-2.72.1-.12.23-.26.37-.42.97-1.08,2.44-2.72,2.03-4.18-.18-.64-.71-1.16-1.58-1.55.86.11,2.11.76,2.57,3.54l.15.89.26-.87c.04-.12.87-3.01-.56-4.93-1.02-1.38-2.94-1.88-5.68-1.49-.4-.26-2.41-1.48-4.99-1.48-2.3,0-5.57,1.03-8.17,5.9h-.02c-.5,0-2.24.12-3.43,1.61-1.27,1.59-1.52,4.17-.74,7.67.24,1.06.46,2.03.67,2.93,1.87,7.99,2.38,10.14-4.13,17.02Zm.3.29c6.66-7.04,6.1-9.45,4.23-17.41-.21-.9-.44-1.87-.67-2.93-.75-3.38-.53-5.84.65-7.32,1.26-1.57,3.2-1.45,3.23-1.45h.14s.06-.11.06-.11c2.01-3.84,4.66-5.79,7.86-5.79,2.69,0,4.8,1.44,4.82,1.45l.07.05h.08c2.61-.4,4.43.05,5.37,1.3.82,1.1.81,2.62.68,3.59-.7-2.51-2.17-2.91-3.04-2.91-.44,0-.74.1-.75.11l-.62.21.63.18c1.26.37,2,.91,2.2,1.6.35,1.24-1.08,2.84-1.94,3.79-.14.16-.27.3-.37.42-.88,1.03-.9,2.02-.93,2.98-.01.56-.03,1.14-.22,1.73-.29-.08-.6-.11-.92-.11-2.24,0-3.26,1.74-3.26,3.36s1.12,3.36,3.26,3.36c.88,0,1.65-.29,2.23-.83.67-.3,1.37-.45,2.09-.45,4.42,0,8.61,5.68,9.48,6.94-7.51,1.88-8.64,5.23-8.69,5.37l-.03.08.04.08c3.65,6.78,4.57,12.03,2.69,15.19-1.73,2.9-5.81,4.09-12.02,3.51-.87-.08-1.71-.12-2.51-.12-5,0-7.48,1.6-9.47,2.88-1.28.82-2.29,1.48-3.62,1.48h0c-1.19,0-2.56-.53-4.32-1.66-2.67-1.72-4.09-3.54-4.34-5.56-.46-3.81,3.31-8.15,7.9-13.01Z"></path><path class="t" d="m55.46,95.67c.17.08.25.03.28.02.14-.08.22-.32.23-.4l.41.07c0,.05-.1.51-.45.7-.07.04-.17.07-.3.07-.1,0-.22-.02-.35-.08-.71-.32-1.02-.87-1.03-.89l.37-.2s.25.45.84.71Z"></path><path class="y" d="m8.04,33.15c4.33,0,7.85,3.52,7.85,7.85s-3.52,7.85-7.85,7.85S.19,45.33.19,41s3.52-7.85,7.85-7.85Z"></path><path class="t" d="m0,41c0,4.43,3.61,8.04,8.04,8.04s8.04-3.61,8.04-8.04-3.61-8.04-8.04-8.04S0,36.57,0,41Zm.37,0c0-4.23,3.44-7.67,7.67-7.67s7.67,3.44,7.67,7.67-3.44,7.67-7.67,7.67S.37,45.23.37,41Z"></path><path class="o" d="m3.97,37.56c.81-.22,4.07-.22,4.07-.22,0,0,3.25,0,4.06.22.45.12.8.48.92.93.22.82.22,2.52.22,2.52,0,0,0,1.7-.22,2.52-.12.45-.47.81-.92.93-.81.22-4.06.22-4.06.22,0,0-3.25,0-4.07-.22-.45-.12-.8-.48-.92-.93-.22-.82-.22-2.52-.22-2.52,0,0,0-1.7.22-2.52.12-.45.47-.81.92-.93Z"></path><path class="t" d="m2.87,38.43c-.22.83-.22,2.5-.22,2.57s0,1.74.22,2.57c.14.51.54.92,1.05,1.06.83.22,3.98.23,4.11.23s3.29,0,4.11-.23c.51-.14.92-.54,1.05-1.06.22-.83.22-2.5.22-2.57,0-.07,0-1.74-.22-2.57-.14-.51-.54-.92-1.05-1.06-.83-.22-3.98-.23-4.11-.23s-3.29,0-4.11.23c-.51.14-.91.54-1.05,1.06Zm.15,2.57s0-1.69.21-2.47c.1-.39.4-.69.79-.79.78-.21,3.98-.21,4.02-.21s3.24,0,4.02.21c.38.1.69.41.79.79.21.78.21,2.46.21,2.47s0,1.69-.21,2.47c-.1.39-.4.69-.79.79-.78.21-3.98.21-4.02.21s-3.24,0-4.02-.21c-.38-.1-.69-.41-.79-.79-.21-.78-.21-2.46-.21-2.47Z"></path><polygon class="t" points="9.1 42.55 6.38 41 9.1 39.46 9.1 42.55"></polygon><path class="t" d="m6.2,41c0,.07.04.13.1.16l2.72,1.55s.06.02.09.02c.03,0,.07,0,.09-.03.06-.03.09-.09.09-.16v-3.09c0-.07-.04-.13-.09-.16-.06-.03-.13-.03-.19,0l-2.72,1.55c-.06.03-.1.1-.1.16Zm.56,0l2.15-1.23v2.45s-2.15-1.23-2.15-1.23Z"></path><path class="aj" d="m51.57,38.37c5.42-2.75,11.48,1.45,10.78,7.43-.07.68-.28,1.4-.61,2.13-1.25,2.99-4.93,4.8-8.03,4.18-.3-.06-.62,0-.88.16l-.64.4c-.93.58-2.1-.25-1.86-1.32.1-.43-.05-.87-.37-1.17-3.5-3.31-2.87-9.44,1.61-11.8Z"></path><path class="t" d="m47.6,43.78c-.34,2.44.5,4.88,2.23,6.52.27.26.39.64.31,1-.1.43,0,.86.27,1.2.27.34.69.54,1.12.54.26,0,.52-.08.75-.22l.64-.4c.22-.14.49-.19.75-.14.41.08.85.12,1.29.12,2.96,0,5.88-1.86,6.95-4.41.34-.74.55-1.48.63-2.18.26-2.23-.39-4.35-1.83-5.97-1.43-1.61-3.48-2.53-5.63-2.53-1.23,0-2.44.3-3.6.88-2.14,1.12-3.55,3.16-3.89,5.59Zm.37.05c.32-2.31,1.66-4.24,3.69-5.3,1.1-.56,2.25-.84,3.43-.84,2.04,0,3.99.88,5.35,2.4,1.37,1.54,1.98,3.55,1.73,5.68-.07.67-.27,1.36-.6,2.07-1.02,2.43-3.8,4.19-6.61,4.19-.42,0-.82-.04-1.21-.12-.09-.02-.18-.03-.27-.03-.26,0-.52.07-.75.22l-.64.4c-.46.29-1.06.17-1.38-.24-.2-.25-.27-.56-.2-.88.11-.48-.05-1-.42-1.35-1.65-1.56-2.44-3.88-2.12-6.2Z"></path><path class="p" d="m51.47,42.46s-.01.02-.01.03v4.36c0,.28.23.51.51.51h6.21c.17,0,.32-.08.42-.2,0,0,0,0,0,0,0,0,0-.01,0-.01.08-.1.13-.21.13-.34v-4.3s0-.02-.01-.03c0,0,0,0,0-.01,0,0-.01,0-.01,0-.02-.04-.05-.07-.1-.07h-7.04s-.08.03-.1.07c0,0-.01,0-.01,0,0,0,0,0,0,.01Zm6.82.15l-3.14,2.75-3.23-2.75h6.37Zm.17,4.25l-2.33-2.04,2.36-2.06v4.03s-.02.05-.03.07Zm-6.52.24l2.35-2.13.77.65s.05.03.08.03.06-.01.08-.03l.72-.63,2.36,2.06s-.08.06-.14.06h-6.21s0,0-.02,0Zm-.24-4.34l2.41,2.05-2.36,2.14s-.04-.06-.04-.1v-4.09Z"></path><path class="n" d="m40.48,41.27c1.71-1.15,2.65-3.27,2.65-5.5,0-3.88-3.14-7.02-7.02-7.02s-7.02,3.14-7.02,7.02c0,9.67,13.54,8.07,13.54,8.07,0,0-3.6-1.6-2.15-2.58Z"></path><path class="u" d="m40.55,41.38c1.7-1.14,2.71-3.24,2.71-5.61,0-3.94-3.21-7.15-7.15-7.15s-7.15,3.21-7.15,7.15c0,3.22,1.47,5.55,4.37,6.93,2.39,1.13,5.24,1.37,7.21,1.37,1.25,0,2.1-.1,2.11-.1.06,0,.11-.05.11-.11,0-.06-.02-.12-.08-.14-.65-.29-2.36-1.19-2.42-1.89-.01-.17.08-.32.29-.46Zm-.55.48c.07.75,1.41,1.53,2.14,1.9-.37.03-.93.06-1.6.06-4.23,0-11.32-1.04-11.32-8.04,0-3.8,3.09-6.89,6.89-6.89s6.89,3.09,6.89,6.89c0,2.28-.97,4.29-2.6,5.39-.29.19-.42.43-.4.7Z"></path><path class="o" d="m33.05,34.86c-.44,0-.79.36-.79.79,0,.44.36.79.79.79s.79-.36.79-.79-.36-.79-.79-.79Z"></path><path class="o" d="m33.05,34.72c-.52,0-.94.42-.94.94,0,.52.42.94.94.94s.94-.42.94-.94-.42-.94-.94-.94Zm0,1.59c-.36,0-.65-.29-.65-.65s.29-.65.65-.65.65.29.65.65-.29.65-.65.65Z"></path><path class="o" d="m36.07,34.86c-.44,0-.79.36-.79.79s.36.79.79.79.79-.36.79-.79-.36-.79-.79-.79Z"></path><path class="o" d="m36.07,34.72c-.52,0-.94.42-.94.94s.42.94.94.94.94-.42.94-.94-.42-.94-.94-.94Zm0,1.59c-.36,0-.65-.29-.65-.65s.29-.65.65-.65.65.29.65.65-.29.65-.65.65Z"></path><path class="o" d="m39.09,34.86c-.44,0-.8.36-.8.79s.36.79.8.79.79-.36.79-.79-.36-.79-.79-.79Z"></path><path class="o" d="m39.09,34.72c-.52,0-.94.42-.94.94s.42.94.94.94.94-.42.94-.94-.42-.94-.94-.94Zm0,1.59c-.36,0-.65-.29-.65-.65s.29-.65.65-.65.65.29.65.65-.29.65-.65.65Z"></path><polygon class="t" points="84.34 60.64 62.17 46.23 62.37 45.87 84.6 60.34 84.34 60.64"></polygon><polygon class="t" points="42.97 33.65 55.52 28.39 55.69 28.77 43.06 34.03 42.97 33.65"></polygon><polygon class="t" points="59.28 38.87 69.86 33.29 70.12 33.53 59.62 39.14 59.28 38.87"></polygon><polygon class="t" points="13.44 35.22 41.4 19.75 41.66 20.07 13.62 35.58 13.44 35.22"></polygon><path class="ac" d="m71.31.23c5.36,0,9.71,4.36,9.71,9.71s-4.36,9.71-9.71,9.71-9.71-4.36-9.71-9.71S65.95.23,71.31.23Z"></path><path class="t" d="m61.37,9.94c0,5.48,4.46,9.94,9.94,9.94s9.94-4.46,9.94-9.94S76.79,0,71.31,0s-9.94,4.46-9.94,9.94Zm.46,0c0-5.23,4.25-9.48,9.48-9.48s9.48,4.25,9.48,9.48-4.25,9.48-9.48,9.48-9.48-4.25-9.48-9.48Z"></path><polygon class="t" points="77.64 17.27 91.12 23.88 90.98 24.27 77.43 17.6 77.64 17.27"></polygon><g class="ad"><rect class="o" x="65.3" y="4.93" width="20.99" height="9.68" rx="1.47" ry="1.47"></rect><path d="m84.82,5.18c.68,0,1.22.55,1.22,1.22v6.74c0,.68-.55,1.22-1.22,1.22h-18.05c-.68,0-1.22-.55-1.22-1.22v-6.74c0-.68.55-1.22,1.22-1.22h18.05m0-.5h-18.05c-.95,0-1.72.77-1.72,1.72v6.74c0,.95.77,1.72,1.72,1.72h18.05c.95,0,1.72-.77,1.72-1.72v-6.74c0-.95-.77-1.72-1.72-1.72h0Z"></path><path class="z" d="m70.38,12.06s0,0,0,0c0,0,0,.01,0,.02-.02.14-.07.26-.13.37-.19.31-.53.5-.91.47-.01,0-.03,0-.04,0-.07,0-.13-.02-.19-.04-.32-.11-.57-.37-.65-.7-.02-.1-.03-.2-.03-.3,0-.02,0-.03,0-.05,0,0,0,0,0,0l.67.08,1.1.13.18.02Z"></path><path class="ag" d="m69.34,12.92s-.03,0-.04,0c-.07,0-.13-.02-.19-.04-.32-.11-.57-.37-.65-.7-.02-.1-.03-.2-.03-.3l.91.47c.24.12.23.46,0,.57Z"></path><rect class="z" x="68.46" y="11.49" width="1.96" height=".45" transform="translate(1.93 -8.31) rotate(6.94)"></rect><path class="z" d="m71.14,7.08l-.07.28-1.02-.26.07-.28c.06-.24.28-.4.52-.4.04,0,.08,0,.12.02.02,0,.04.01.06.02.11.04.2.12.26.22.07.12.09.26.06.4Z"></path><path class="af" d="m70.95,6.95c-.03.13-.15.22-.29.22l-.49-.12.05-.2c.06-.24.28-.4.52-.4.01,0,.02,0,.03,0,.01,0,.03,0,.04.01.03.03.05.06.07.09.07.12.09.26.06.4Z"></path><path class="ag" d="m70.22,6.84l-.05.2.49.12s-.04,0-.06,0l-.53-.14.05-.2c.06-.24.28-.4.52-.4.04,0,.08,0,.12.02,0,0,.01,0,.02,0-.01,0-.02,0-.03,0-.24,0-.46.16-.52.4Z"></path><path class="z" d="m71.92,12.45l-.92-.23h0s-.17-.04-.17-.04h0s-1.74-.44-1.74-.44l-2.26-.57s0,0-.01,0c0,0,0,0-.01,0,0,0,0,0,0,0,0,0,0,0,0,0t0,0s0,0,0,0c0,0,0,0,0,0,0,0,0,0,0,0,0,0-.01,0-.01,0,0,0,0,0,0,0,0,0,0,0,0,0,0,0,0,0,0,0,0,0,0,0,0,0h0s0,0,0,0c0,0,0,0,0,0,0,0,0,0,0,0,0,0,0,0,0,0,0,0,0,0,0,0,0,0-.01,0-.01-.01,0,0,0,0,0,0,0,0,0-.01-.01-.02,0,0,0,0,0,0,0,0,0,0,0,0,0,0,0-.01-.01-.02,0,0,0,0,0,0,0,0,0,0,0,0,0,0,0,0,0,0,0,0,0,0,0-.01,0,0,0,0,0-.01,0,0,0,0,0,0,0,0,0,0,0,0,0,0,0,0,0,0,0,0,0-.01,0-.02,0,0,0,0,0,0,0,0,0,0,0,0,0,0,0,0,0-.01,0,0,0,0,0,0,0-.08.02-.15.08-.21l.42-.39c.37-.35.64-.8.77-1.3l.13-.5c.14-.57.5-1.02.97-1.3.02-.01.04-.02.06-.03.01,0,.02-.01.03-.02,0,0,.01,0,.02,0,.02-.01.04-.02.06-.03.06-.03.12-.05.18-.08,0,0,.02,0,.03,0,.01,0,.03,0,.04-.01,0,0,.01,0,.02,0,.07-.02.15-.04.23-.06,0,0,0,0,.01,0,.04,0,.08-.02.12-.02,0,0,.01,0,.02,0,.01,0,.02,0,.04,0,.08,0,.17-.01.26-.01,0,0,.02,0,.03,0,0,0,0,0,.01,0,0,0,.01,0,.02,0,0,0,.02,0,.03,0,0,0,.02,0,.02,0,0,0,0,0,0,0,0,0,.01,0,.02,0,0,0,0,0,0,0,0,0,.02,0,.03,0,0,0,.02,0,.03,0,.1.01.2.03.3.05.1.03.2.06.29.1.08.03.16.07.23.11.53.3.89.8,1.02,1.38.07.31.07.65-.01.98v.05s-.12.44-.12.44c0,.01,0,.02,0,.03-.12.49-.1,1.01.07,1.49l.05.16.13.38c.07.2-.11.39-.31.34Z"></path><path class="ag" d="m70.31,6.94c-.41,0-.8.11-1.14.31-.48.29-.85.76-1,1.34l-.13.52c-.13.51-.41.98-.79,1.34l-.43.41c-.08.07-.1.17-.08.25-.13-.09-.15-.29-.03-.41l.42-.39c.37-.35.64-.8.77-1.3l.13-.5c.14-.57.5-1.02.97-1.3.38-.23.84-.34,1.3-.29,0,0,.02,0,.02,0Z"></path><path class="aj" d="m71.41,9.89c-.13.5-.11,1.03.06,1.52.02.07.02.13,0,.19-.04.16-.2.28-.39.25l-4.27-.71s-.06-.02-.09-.04c-.02-.09,0-.18.08-.25l.43-.41c.39-.36.66-.83.79-1.34l.13-.52c.15-.59.52-1.06,1-1.34.34-.2.73-.31,1.14-.31.94.4,1.48,1.44,1.22,2.46l-.12.49Z"></path><path d="m75.24,9.17h9.08c.21,0,.37-.17.37-.37h0c0-.21-.17-.37-.37-.37h-9.08c-.21,0-.37.17-.37.37h0c0,.21.17.37.37.37Z"></path><path d="m75.24,11.11h5.91c.21,0,.37-.17.37-.37h0c0-.21-.17-.37-.37-.37h-5.91c-.21,0-.37.17-.37.37h0c0,.21.17.37.37.37Z"></path><circle class="y" cx="71.98" cy="9.11" r="1.3"></circle><path class="o" d="m71.85,9.23l-.04-.56c0-.11-.01-.19-.01-.23,0-.06.02-.11.05-.15.03-.04.08-.05.13-.05.07,0,.11.02.13.07.02.05.03.11.03.2,0,.05,0,.1,0,.16l-.05.57c0,.07-.02.12-.03.16-.02.04-.05.05-.09.05s-.07-.02-.09-.05c-.02-.04-.03-.09-.03-.16Zm.13.76s-.09-.02-.12-.05c-.04-.03-.05-.07-.05-.13,0-.05.02-.09.05-.12s.07-.05.12-.05.09.02.12.05c.03.03.05.07.05.12,0,.05-.02.1-.05.13-.03.03-.08.05-.12.05Z"></path></g></g></g></g></svg>